<svg width="1552" height="1190" viewBox="0 0 1552 1190" fill="none" xmlns="http://www.w3.org/2000/svg">
<g clip-path="url(#clip0_264_622)">
<rect width="1552" height="1190" fill="#F5F5F3"/>
<g opacity="0.8">
<path d="M9.4968 1074.66C25.3673 1015.43 86.248 980.282 145.478 996.152C152.247 997.966 156.264 1004.92 154.45 1011.69L148.237 1034.88C132.367 1094.11 71.4859 1129.26 12.2563 1113.39C5.48722 1111.57 1.47014 1104.62 3.28392 1097.85L9.4968 1074.66Z" fill="#ECECEC" fill-opacity="0.75"/>
<path d="M231.231 1074.66C247.102 1015.43 307.982 980.282 367.212 996.152C373.981 997.966 377.998 1004.92 376.184 1011.69L369.971 1034.88C354.101 1094.11 293.22 1129.26 233.991 1113.39C227.222 1111.57 223.205 1104.62 225.018 1097.85L231.231 1074.66Z" fill="#ECECEC" fill-opacity="0.75"/>
<path d="M452.966 1074.66C468.836 1015.43 529.717 980.282 588.946 996.152C595.715 997.966 599.732 1004.92 597.919 1011.69L591.706 1034.88C575.835 1094.11 514.955 1129.26 455.725 1113.39C448.956 1111.57 444.939 1104.62 446.753 1097.85L452.966 1074.66Z" fill="#ECECEC" fill-opacity="0.75"/>
<path d="M674.7 1074.66C690.57 1015.43 751.451 980.282 810.681 996.152C817.45 997.966 821.467 1004.92 819.653 1011.69L813.44 1034.88C797.57 1094.11 736.689 1129.26 677.459 1113.39C670.69 1111.57 666.673 1104.62 668.487 1097.85L674.7 1074.66Z" fill="#ECECEC" fill-opacity="0.75"/>
<path d="M896.434 1074.66C912.305 1015.43 973.185 980.282 1032.42 996.152C1039.18 997.966 1043.2 1004.92 1041.39 1011.69L1035.17 1034.88C1019.3 1094.11 958.423 1129.26 899.194 1113.39C892.425 1111.57 888.408 1104.62 890.221 1097.85L896.434 1074.66Z" fill="#ECECEC" fill-opacity="0.75"/>
<path d="M1118.17 1074.66C1134.04 1015.43 1194.92 980.282 1254.15 996.152C1260.92 997.966 1264.94 1004.92 1263.12 1011.69L1256.91 1034.88C1241.04 1094.11 1180.16 1129.26 1120.93 1113.39C1114.16 1111.57 1110.14 1104.62 1111.96 1097.85L1118.17 1074.66Z" fill="#ECECEC" fill-opacity="0.75"/>
<path d="M1339.9 1074.66C1355.77 1015.43 1416.65 980.282 1475.88 996.152C1482.65 997.966 1486.67 1004.92 1484.86 1011.69L1478.64 1034.88C1462.77 1094.11 1401.89 1129.26 1342.66 1113.39C1335.89 1111.57 1331.88 1104.62 1333.69 1097.85L1339.9 1074.66Z" fill="#ECECEC" fill-opacity="0.75"/>
</g>
<g opacity="0.8">
<path d="M-101.503 41.4634C-85.6327 100.693 -24.752 135.842 34.4776 119.972C41.2467 118.158 45.2637 111.2 43.45 104.431L37.2371 81.2444C21.3666 22.0148 -39.5141 -13.1346 -98.7437 2.73592C-105.513 4.54969 -109.53 11.5075 -107.716 18.2766L-101.503 41.4634Z" fill="#ECECEC" fill-opacity="0.75"/>
<path d="M120.231 41.4634C136.102 100.693 196.982 135.842 256.212 119.972C262.981 118.158 266.998 111.2 265.184 104.431L258.971 81.2444C243.101 22.0148 182.22 -13.1346 122.991 2.73592C116.222 4.54969 112.205 11.5075 114.018 18.2766L120.231 41.4634Z" fill="#ECECEC" fill-opacity="0.75"/>
<path d="M341.966 41.4634C357.836 100.693 418.717 135.842 477.946 119.972C484.715 118.158 488.732 111.2 486.919 104.431L480.706 81.2444C464.835 22.0148 403.955 -13.1346 344.725 2.73592C337.956 4.54969 333.939 11.5075 335.753 18.2766L341.966 41.4634Z" fill="#ECECEC" fill-opacity="0.75"/>
<path d="M563.7 41.4634C579.57 100.693 640.451 135.842 699.681 119.972C706.45 118.158 710.467 111.2 708.653 104.431L702.44 81.2444C686.57 22.0148 625.689 -13.1346 566.459 2.73592C559.69 4.54969 555.673 11.5075 557.487 18.2766L563.7 41.4634Z" fill="#ECECEC" fill-opacity="0.75"/>
<path d="M785.434 41.4634C801.305 100.693 862.185 135.842 921.415 119.972C928.184 118.158 932.201 111.2 930.387 104.431L924.175 81.2444C908.304 22.0148 847.423 -13.1346 788.194 2.73592C781.425 4.54969 777.408 11.5075 779.221 18.2766L785.434 41.4634Z" fill="#ECECEC" fill-opacity="0.75"/>
<path d="M1007.17 41.4634C1023.04 100.693 1083.92 135.842 1143.15 119.972C1149.92 118.158 1153.94 111.2 1152.12 104.431L1145.91 81.2444C1130.04 22.0148 1069.16 -13.1346 1009.93 2.73592C1003.16 4.54969 999.142 11.5075 1000.96 18.2766L1007.17 41.4634Z" fill="#ECECEC" fill-opacity="0.75"/>
<path d="M1228.9 41.4634C1244.77 100.693 1305.65 135.842 1364.88 119.972C1371.65 118.158 1375.67 111.2 1373.86 104.431L1367.64 81.2444C1351.77 22.0148 1290.89 -13.1346 1231.66 2.73592C1224.89 4.54969 1220.88 11.5075 1222.69 18.2766L1228.9 41.4634Z" fill="#ECECEC" fill-opacity="0.75"/>
<path d="M1450.64 41.4634C1466.51 100.693 1527.39 135.842 1586.62 119.972C1593.39 118.158 1597.4 111.2 1595.59 104.431L1589.38 81.2444C1573.51 22.0148 1512.63 -13.1346 1453.4 2.73592C1446.63 4.54969 1442.61 11.5075 1444.42 18.2766L1450.64 41.4634Z" fill="#ECECEC" fill-opacity="0.75"/>
</g>
<g opacity="0.8">
<path d="M9.4968 279.953C25.3673 220.723 86.248 185.574 145.478 201.444C152.247 203.258 156.264 210.216 154.45 216.985L148.237 240.172C132.367 299.401 71.4859 334.551 12.2563 318.68C5.48722 316.866 1.47014 309.909 3.28392 303.139L9.4968 279.953Z" fill="#ECECEC" fill-opacity="0.75"/>
<path d="M231.231 279.953C247.102 220.723 307.982 185.574 367.212 201.444C373.981 203.258 377.998 210.216 376.184 216.985L369.971 240.172C354.101 299.401 293.22 334.551 233.991 318.68C227.222 316.866 223.205 309.909 225.018 303.139L231.231 279.953Z" fill="#ECECEC" fill-opacity="0.75"/>
<path d="M452.966 279.953C468.836 220.723 529.717 185.574 588.946 201.444C595.715 203.258 599.732 210.216 597.919 216.985L591.706 240.172C575.835 299.401 514.955 334.551 455.725 318.68C448.956 316.866 444.939 309.909 446.753 303.139L452.966 279.953Z" fill="#ECECEC" fill-opacity="0.75"/>
<path d="M674.7 279.953C690.57 220.723 751.451 185.574 810.681 201.444C817.45 203.258 821.467 210.216 819.653 216.985L813.44 240.172C797.57 299.401 736.689 334.551 677.459 318.68C670.69 316.866 666.673 309.909 668.487 303.139L674.7 279.953Z" fill="#ECECEC" fill-opacity="0.75"/>
<path d="M896.434 279.953C912.305 220.723 973.185 185.574 1032.42 201.444C1039.18 203.258 1043.2 210.216 1041.39 216.985L1035.17 240.172C1019.3 299.401 958.423 334.551 899.194 318.68C892.425 316.866 888.408 309.909 890.221 303.139L896.434 279.953Z" fill="#ECECEC" fill-opacity="0.75"/>
<path d="M1118.17 279.953C1134.04 220.723 1194.92 185.574 1254.15 201.444C1260.92 203.258 1264.94 210.216 1263.12 216.985L1256.91 240.172C1241.04 299.401 1180.16 334.551 1120.93 318.68C1114.16 316.866 1110.14 309.909 1111.96 303.139L1118.17 279.953Z" fill="#ECECEC" fill-opacity="0.75"/>
<path d="M1339.9 279.953C1355.77 220.723 1416.65 185.574 1475.88 201.444C1482.65 203.258 1486.67 210.216 1484.86 216.985L1478.64 240.172C1462.77 299.401 1401.89 334.551 1342.66 318.68C1335.89 316.866 1331.88 309.909 1333.69 303.139L1339.9 279.953Z" fill="#ECECEC" fill-opacity="0.75"/>
</g>
<g opacity="0.8">
<path d="M-101.503 439.171C-85.6327 498.401 -24.752 533.55 34.4776 517.68C41.2467 515.866 45.2637 508.908 43.45 502.139L37.2371 478.952C21.3666 419.723 -39.5141 384.573 -98.7437 400.444C-105.513 402.258 -109.53 409.215 -107.716 415.985L-101.503 439.171Z" fill="#ECECEC" fill-opacity="0.75"/>
<path d="M120.231 439.171C136.102 498.401 196.982 533.55 256.212 517.68C262.981 515.866 266.998 508.908 265.184 502.139L258.971 478.952C243.101 419.723 182.22 384.573 122.991 400.444C116.222 402.258 112.205 409.215 114.018 415.985L120.231 439.171Z" fill="#ECECEC" fill-opacity="0.75"/>
<path d="M341.966 439.171C357.836 498.401 418.717 533.55 477.946 517.68C484.715 515.866 488.732 508.908 486.919 502.139L480.706 478.952C464.835 419.723 403.955 384.573 344.725 400.444C337.956 402.258 333.939 409.215 335.753 415.985L341.966 439.171Z" fill="#ECECEC" fill-opacity="0.75"/>
<path d="M563.7 439.171C579.57 498.401 640.451 533.55 699.681 517.68C706.45 515.866 710.467 508.908 708.653 502.139L702.44 478.952C686.57 419.723 625.689 384.573 566.459 400.444C559.69 402.258 555.673 409.215 557.487 415.985L563.7 439.171Z" fill="#ECECEC" fill-opacity="0.75"/>
<path d="M785.434 439.171C801.305 498.401 862.185 533.55 921.415 517.68C928.184 515.866 932.201 508.908 930.387 502.139L924.175 478.952C908.304 419.723 847.423 384.573 788.194 400.444C781.425 402.258 777.408 409.215 779.221 415.985L785.434 439.171Z" fill="#ECECEC" fill-opacity="0.75"/>
<path d="M1007.17 439.171C1023.04 498.401 1083.92 533.55 1143.15 517.68C1149.92 515.866 1153.94 508.908 1152.12 502.139L1145.91 478.952C1130.04 419.723 1069.16 384.573 1009.93 400.444C1003.16 402.258 999.142 409.215 1000.96 415.985L1007.17 439.171Z" fill="#ECECEC" fill-opacity="0.75"/>
<path d="M1228.9 439.171C1244.77 498.401 1305.65 533.55 1364.88 517.68C1371.65 515.866 1375.67 508.908 1373.86 502.139L1367.64 478.952C1351.77 419.723 1290.89 384.573 1231.66 400.444C1224.89 402.258 1220.88 409.215 1222.69 415.985L1228.9 439.171Z" fill="#ECECEC" fill-opacity="0.75"/>
<path d="M1450.64 439.171C1466.51 498.401 1527.39 533.55 1586.62 517.68C1593.39 515.866 1597.4 508.908 1595.59 502.139L1589.38 478.952C1573.51 419.723 1512.63 384.573 1453.4 400.444C1446.63 402.258 1442.61 409.215 1444.42 415.985L1450.64 439.171Z" fill="#ECECEC" fill-opacity="0.75"/>
</g>
<g opacity="0.8">
<path d="M9.4968 677.661C25.3673 618.431 86.248 583.282 145.478 599.152C152.247 600.966 156.264 607.924 154.45 614.693L148.237 637.88C132.367 697.109 71.4859 732.259 12.2563 716.388C5.48722 714.574 1.47014 707.617 3.28392 700.847L9.4968 677.661Z" fill="#ECECEC" fill-opacity="0.75"/>
<path d="M231.231 677.661C247.102 618.431 307.982 583.282 367.212 599.152C373.981 600.966 377.998 607.924 376.184 614.693L369.971 637.88C354.101 697.109 293.22 732.259 233.991 716.388C227.222 714.574 223.205 707.617 225.018 700.847L231.231 677.661Z" fill="#ECECEC" fill-opacity="0.75"/>
<path d="M452.966 677.661C468.836 618.431 529.717 583.282 588.946 599.152C595.715 600.966 599.732 607.924 597.919 614.693L591.706 637.88C575.835 697.109 514.955 732.259 455.725 716.388C448.956 714.574 444.939 707.617 446.753 700.847L452.966 677.661Z" fill="#ECECEC" fill-opacity="0.75"/>
<path d="M674.7 677.661C690.57 618.431 751.451 583.282 810.681 599.152C817.45 600.966 821.467 607.924 819.653 614.693L813.44 637.88C797.57 697.109 736.689 732.259 677.459 716.388C670.69 714.574 666.673 707.617 668.487 700.847L674.7 677.661Z" fill="#ECECEC" fill-opacity="0.75"/>
<path d="M896.434 677.661C912.305 618.431 973.185 583.282 1032.42 599.152C1039.18 600.966 1043.2 607.924 1041.39 614.693L1035.17 637.88C1019.3 697.109 958.423 732.259 899.194 716.388C892.425 714.574 888.408 707.617 890.221 700.847L896.434 677.661Z" fill="#ECECEC" fill-opacity="0.75"/>
<path d="M1118.17 677.661C1134.04 618.431 1194.92 583.282 1254.15 599.152C1260.92 600.966 1264.94 607.924 1263.12 614.693L1256.91 637.88C1241.04 697.109 1180.16 732.259 1120.93 716.388C1114.16 714.574 1110.14 707.617 1111.96 700.847L1118.17 677.661Z" fill="#ECECEC" fill-opacity="0.75"/>
<path d="M1339.9 677.661C1355.77 618.431 1416.65 583.282 1475.88 599.152C1482.65 600.966 1486.67 607.924 1484.86 614.693L1478.64 637.88C1462.77 697.109 1401.89 732.259 1342.66 716.388C1335.89 714.574 1331.88 707.617 1333.69 700.847L1339.9 677.661Z" fill="#ECECEC" fill-opacity="0.75"/>
</g>
<g opacity="0.8">
<path d="M-101.503 836.171C-85.6327 895.401 -24.752 930.55 34.4776 914.68C41.2467 912.866 45.2637 905.908 43.45 899.139L37.2371 875.952C21.3666 816.723 -39.5141 781.573 -98.7437 797.444C-105.513 799.258 -109.53 806.215 -107.716 812.985L-101.503 836.171Z" fill="#ECECEC" fill-opacity="0.75"/>
<path d="M120.231 836.171C136.102 895.401 196.982 930.55 256.212 914.68C262.981 912.866 266.998 905.908 265.184 899.139L258.971 875.952C243.101 816.723 182.22 781.573 122.991 797.444C116.222 799.258 112.205 806.215 114.018 812.985L120.231 836.171Z" fill="#ECECEC" fill-opacity="0.75"/>
<path d="M341.966 836.171C357.836 895.401 418.717 930.55 477.946 914.68C484.715 912.866 488.732 905.908 486.919 899.139L480.706 875.952C464.835 816.723 403.955 781.573 344.725 797.444C337.956 799.258 333.939 806.215 335.753 812.985L341.966 836.171Z" fill="#ECECEC" fill-opacity="0.75"/>
<path d="M563.7 836.171C579.57 895.401 640.451 930.55 699.681 914.68C706.45 912.866 710.467 905.908 708.653 899.139L702.44 875.952C686.57 816.723 625.689 781.573 566.459 797.444C559.69 799.258 555.673 806.215 557.487 812.985L563.7 836.171Z" fill="#ECECEC" fill-opacity="0.75"/>
<path d="M785.434 836.171C801.305 895.401 862.185 930.55 921.415 914.68C928.184 912.866 932.201 905.908 930.387 899.139L924.175 875.952C908.304 816.723 847.423 781.573 788.194 797.444C781.425 799.258 777.408 806.215 779.221 812.985L785.434 836.171Z" fill="#ECECEC" fill-opacity="0.75"/>
<path d="M1007.17 836.171C1023.04 895.401 1083.92 930.55 1143.15 914.68C1149.92 912.866 1153.94 905.908 1152.12 899.139L1145.91 875.952C1130.04 816.723 1069.16 781.573 1009.93 797.444C1003.16 799.258 999.142 806.215 1000.96 812.985L1007.17 836.171Z" fill="#ECECEC" fill-opacity="0.75"/>
<path d="M1228.9 836.171C1244.77 895.401 1305.65 930.55 1364.88 914.68C1371.65 912.866 1375.67 905.908 1373.86 899.139L1367.64 875.952C1351.77 816.723 1290.89 781.573 1231.66 797.444C1224.89 799.258 1220.88 806.215 1222.69 812.985L1228.9 836.171Z" fill="#ECECEC" fill-opacity="0.75"/>
<path d="M1450.64 836.171C1466.51 895.401 1527.39 930.55 1586.62 914.68C1593.39 912.866 1597.4 905.908 1595.59 899.139L1589.38 875.952C1573.51 816.723 1512.63 781.573 1453.4 797.444C1446.63 799.258 1442.61 806.215 1444.42 812.985L1450.64 836.171Z" fill="#ECECEC" fill-opacity="0.75"/>
</g>
</g>
<defs>
<clipPath id="clip0_264_622">
<rect width="1552" height="1190" fill="white"/>
</clipPath>
</defs>
</svg>
