<svg width="512" height="182" viewBox="0 0 512 182" fill="none" xmlns="http://www.w3.org/2000/svg">
<path d="M472.917 140.96L477.442 124.191C488.455 121.57 500.22 121.11 511.717 122.849C493.805 130.403 491.729 150.003 478.183 161.798C473.921 165.45 468.623 168.278 462.681 170.07C456.74 171.863 450.308 172.575 443.862 172.154L429.314 176.373C429.144 168.254 431.234 160.268 435.441 152.965C439.648 145.661 445.871 139.214 453.681 134.068C458.101 131.215 462.985 128.822 468.217 126.943C470.027 133.904 472.917 140.96 472.917 140.96Z" fill="#F1F1F1"/>
<path d="M12.3384 60.3879L0.886529 55.815C0.280509 50.6312 1.30284 45.4569 3.86476 40.7413C7.20061 49.6859 20.9547 53.6373 27.8197 61.3482C29.9378 63.7653 31.3479 66.5031 31.9455 69.3589C32.5431 72.2146 32.313 75.115 31.2721 77.8452L32.6129 84.8114C26.7976 83.6212 21.3364 81.4714 16.6055 78.5101C11.8747 75.5488 7.98662 71.8463 5.20925 67.6579C3.68048 65.2969 2.53243 62.8062 1.7922 60.2444C6.9699 60.543 12.3384 60.3879 12.3384 60.3879Z" fill="#F1F1F1"/>
<path d="M394.284 111.957L401.206 92.7277C389.026 81.0491 374.236 70.7224 358.119 62.6444C375.429 84.6684 363.203 104.44 371.67 126.688C374.379 133.635 379.048 140.694 385.331 147.344C391.613 153.993 399.349 160.062 407.965 165.101L423.48 181.225C429.869 173.902 433.248 164.799 433.386 154.542C433.523 144.285 430.415 133.118 424.276 121.811C420.757 115.468 416.291 109.156 410.985 103.024C403.365 107.902 394.284 111.957 394.284 111.957Z" fill="#F1F1F1"/>
<path d="M267.126 84.4593L265.961 78.4679C261.426 77.1467 256.475 76.5473 251.541 76.7217C258.772 80.0137 258.775 86.8965 263.973 91.4979C265.611 92.9253 267.723 94.105 270.153 94.9494C272.583 95.7938 275.269 96.2814 278.011 96.376L283.97 98.3841C284.403 95.5716 283.876 92.7207 282.424 90.0277C280.972 87.3347 278.631 84.8638 275.56 82.785C273.82 81.6295 271.863 80.6159 269.736 79.7682C268.661 82.1177 267.126 84.4593 267.126 84.4593Z" fill="#F1F1F1"/>
<path d="M181.726 5.10969L176.934 2.8207C174.14 4.10373 171.698 5.8943 169.819 8.03694C175.129 6.54069 180.091 9.72769 185.518 9.68781C187.212 9.66471 188.92 9.32862 190.516 8.70446C192.111 8.08029 193.554 7.18405 194.736 6.08215L198.603 4.52291C196.752 3.0389 194.483 1.9385 191.952 1.29755C189.422 0.656595 186.69 0.490311 183.944 0.810158C182.405 1.00196 180.88 1.34994 179.405 1.84591C180.662 3.38346 181.726 5.10969 181.726 5.10969Z" fill="#F1F1F1"/>
</svg>
