<svg width="131" height="31" viewBox="0 0 131 31" fill="none" xmlns="http://www.w3.org/2000/svg">
<path fill-rule="evenodd" clip-rule="evenodd" d="M9.79793 5.46114C7.40279 5.46114 5.46114 7.40279 5.46114 9.79793V22.0052C5.46114 23.5132 4.23862 24.7358 2.73057 24.7358C1.22252 24.7358 0 23.5132 0 22.0052V9.79793C0 4.38668 4.38668 0 9.79793 0H22.487C23.9951 0 25.2176 1.22252 25.2176 2.73057C25.2176 4.23862 23.9951 5.46114 22.487 5.46114H9.79793ZM9.95855 13.8135C9.95855 12.3054 11.1811 11.0829 12.6891 11.0829H17.3472C21.6939 11.0829 25.2176 14.6066 25.2176 18.9534V25.057C25.2176 25.3231 25.4334 25.5389 25.6995 25.5389H29.8757C32.2708 25.5389 34.2124 23.5972 34.2124 21.2021V13.8135C34.2124 12.3054 35.435 11.0829 36.943 11.0829C38.4511 11.0829 39.6736 12.3054 39.6736 13.8135V21.2021C39.6736 26.6133 35.2869 31 29.8757 31H25.6995C22.4173 31 19.7565 28.3392 19.7565 25.057V18.9534C19.7565 17.6227 18.6778 16.544 17.3472 16.544H12.6891C11.1811 16.544 9.95855 15.3215 9.95855 13.8135Z" fill="#1E3E3B"/>
<path d="M56.3782 22.8083V7.86148H65.0133V9.51653H58.5987V22.8083H56.3782ZM59.3799 15.7769C59.4759 15.5096 59.5992 15.2527 59.75 15.0059C59.9076 14.7524 60.1064 14.5502 60.3462 14.3994C60.5861 14.2418 60.8808 14.163 61.2303 14.163H64.3142V15.7769H59.3799Z" fill="#1E3E3B"/>
<path d="M69.0465 22.8083V12.179H71.2669V22.8083H69.0465ZM70.1567 10.452C69.7729 10.452 69.4508 10.3218 69.1904 10.0614C68.93 9.80094 68.7998 9.47884 68.7998 9.09506C68.7998 8.69757 68.93 8.36862 69.1904 8.1082C69.4508 7.84092 69.7729 7.70729 70.1567 7.70729C70.5473 7.70729 70.8694 7.84092 71.123 8.1082C71.3834 8.36862 71.5136 8.69757 71.5136 9.09506C71.5136 9.47884 71.3834 9.80094 71.123 10.0614C70.8694 10.3218 70.5473 10.452 70.1567 10.452Z" fill="#1E3E3B"/>
<path d="M82.1675 22.8083V15.1293C82.1675 14.6907 82.0716 14.3309 81.8797 14.0499C81.6878 13.7689 81.3897 13.6284 80.9853 13.6284C80.8277 13.6284 80.6872 13.6456 80.5639 13.6798C80.4405 13.7141 80.2863 13.7484 80.1013 13.7826C79.7244 13.8512 79.3783 13.8169 79.063 13.6798C78.7546 13.5359 78.4702 13.3132 78.2098 13.0117C78.9294 12.5936 79.5359 12.3126 80.0293 12.1687C80.5296 12.0248 80.9785 11.9528 81.376 11.9528C81.9037 11.9528 82.3971 12.0591 82.8563 12.2715C83.3154 12.484 83.6821 12.8301 83.9562 13.3098C84.2372 13.7895 84.3777 14.4406 84.3777 15.2629V22.8083H82.1675ZM75.4548 22.8083V14.7695C75.4548 14.3857 75.4308 13.978 75.3829 13.5462C75.3349 13.1145 75.2526 12.6587 75.1361 12.179H76.8631C77.1921 12.5491 77.408 12.9157 77.5108 13.2789C77.6204 13.6422 77.6752 14.0294 77.6752 14.4406V22.8083H75.4548Z" fill="#1E3E3B"/>
<path d="M92.5772 23.0345C91.6041 23.0345 90.7749 22.7912 90.0895 22.3046C89.4111 21.8112 88.8937 21.143 88.5373 20.3C88.1809 19.4502 88.0027 18.4942 88.0027 17.432C88.0027 16.637 88.1295 15.9106 88.3831 15.2527C88.6435 14.5947 88.9965 14.0259 89.4419 13.5462C89.8874 13.0665 90.3911 12.6964 90.953 12.436C91.515 12.1687 92.0975 12.0351 92.7006 12.0351C93.0227 12.0351 93.3551 12.0591 93.6977 12.107C94.0404 12.155 94.4208 12.251 94.8388 12.3949C94.6538 12.7649 94.4139 13.0699 94.1192 13.3098C93.8245 13.5428 93.4545 13.6627 93.009 13.6696C92.5156 13.6627 92.0633 13.7964 91.6521 14.0705C91.2477 14.3446 90.9222 14.7627 90.6755 15.3246C90.4288 15.8797 90.3054 16.5822 90.3054 17.432C90.3054 18.1858 90.4082 18.8609 90.6138 19.4571C90.8194 20.0533 91.1175 20.5228 91.5082 20.8654C91.8988 21.2081 92.3751 21.3794 92.9371 21.3794C93.3894 21.3794 93.8314 21.2595 94.2631 21.0196C94.6949 20.7798 95.1232 20.4028 95.5481 19.8888V7.22414H97.7172V19.5496C97.7172 20.2486 97.7446 20.8688 97.7994 21.4103C97.8611 21.9448 97.9364 22.4108 98.0255 22.8083H96.4219C96.2574 22.6781 96.1204 22.5307 96.0107 22.3663C95.9011 22.2018 95.7983 21.9928 95.7023 21.7392L95.6406 21.3691L95.435 21.7495C94.9827 22.2292 94.4962 22.565 93.9753 22.7569C93.4613 22.9419 92.9953 23.0345 92.5772 23.0345Z" fill="#1E3E3B"/>
<path d="M114.09 23.0961C112.904 23.0961 111.89 22.8597 111.047 22.3868C110.204 21.9071 109.556 21.2286 109.104 20.3514C108.659 19.4742 108.436 18.4394 108.436 17.2469V7.86148H110.626V17.5656C110.626 18.7512 110.944 19.6935 111.582 20.3926C112.219 21.0916 113.055 21.4411 114.09 21.4411C115.118 21.4411 115.95 21.0916 116.588 20.3926C117.225 19.6935 117.544 18.7512 117.544 17.5656V7.86148H119.733V17.2469C119.733 18.4188 119.497 19.4434 119.024 20.3206C118.558 21.1978 117.9 21.8797 117.05 22.3663C116.201 22.8528 115.214 23.0961 114.09 23.0961Z" fill="#1E3E3B"/>
<path d="M126.88 23.0139C126.36 23.0139 125.787 22.9659 125.164 22.87C124.547 22.774 123.824 22.5342 122.995 22.1504L123.529 20.6393C124.084 20.8928 124.622 21.0779 125.143 21.1944C125.664 21.304 126.14 21.3589 126.572 21.3589C127.161 21.3589 127.597 21.2252 127.878 20.9579C128.159 20.6907 128.299 20.3583 128.299 19.9608C128.299 19.5976 128.179 19.2995 127.939 19.0665C127.699 18.8266 127.391 18.6141 127.014 18.4291C126.637 18.2441 126.236 18.0556 125.811 17.8637C125.386 17.6718 124.986 17.4491 124.609 17.1955C124.232 16.942 123.923 16.6267 123.683 16.2498C123.444 15.866 123.324 15.3931 123.324 14.8312C123.324 14.3926 123.447 13.9574 123.694 13.5256C123.947 13.087 124.328 12.7238 124.835 12.436C125.342 12.1413 125.983 11.994 126.757 11.994C127.168 11.994 127.61 12.0317 128.083 12.107C128.556 12.1756 129.094 12.3161 129.697 12.5285L129.173 14.0088C128.714 13.8649 128.306 13.7621 127.95 13.7004C127.593 13.6387 127.264 13.6079 126.963 13.6079C126.51 13.6079 126.137 13.7107 125.842 13.9163C125.554 14.115 125.41 14.4097 125.41 14.8003C125.41 15.143 125.53 15.4343 125.77 15.6741C126.01 15.9071 126.318 16.1196 126.695 16.3115C127.072 16.4965 127.473 16.6884 127.898 16.8871C128.323 17.0859 128.724 17.3189 129.101 17.5862C129.478 17.8466 129.786 18.1721 130.026 18.5627C130.266 18.9465 130.386 19.4263 130.386 20.0019C130.386 20.5639 130.221 21.0744 129.892 21.5336C129.563 21.9859 129.132 22.3457 128.597 22.613C128.069 22.8803 127.497 23.0139 126.88 23.0139Z" fill="#1E3E3B"/>
</svg>
