<svg width="56" height="43" viewBox="0 0 56 43" fill="none" xmlns="http://www.w3.org/2000/svg">
<path fill-rule="evenodd" clip-rule="evenodd" d="M13.83 7.48198C10.4492 7.48198 7.7085 10.1421 7.7085 13.4236V30.148C7.7085 32.2141 5.9829 33.889 3.85425 33.889C1.72561 33.889 0 32.2141 0 30.148V13.4236C0 6.00993 6.19188 0 13.83 0H31.7409C33.8695 0 35.5951 1.6749 35.5951 3.74099C35.5951 5.80708 33.8695 7.48198 31.7409 7.48198H13.83ZM14.0567 18.925C14.0567 16.8589 15.7823 15.184 17.9109 15.184H24.4858C30.6213 15.184 35.5951 20.0117 35.5951 25.9669V34.3291C35.5951 34.6937 35.8997 34.9893 36.2753 34.9893H42.17C45.5508 34.9893 48.2915 32.3291 48.2915 29.0477V18.925C48.2915 16.8589 50.0171 15.184 52.1458 15.184C54.2744 15.184 56 16.8589 56 18.925V29.0477C56 36.4613 49.8081 42.4712 42.17 42.4712H36.2753C31.6424 42.4712 27.8866 38.8259 27.8866 34.3291V25.9669C27.8866 24.1439 26.364 22.666 24.4858 22.666H17.9109C15.7823 22.666 14.0567 20.9911 14.0567 18.925Z" fill="#1E3E3B"/>
</svg>
