<?xml version="1.0" encoding="UTF-8"?>
<svg width="98px" height="31px" viewBox="0 0 98 31" version="1.1" xmlns="http://www.w3.org/2000/svg" xmlns:xlink="http://www.w3.org/1999/xlink">
    <!-- Generator: Sketch 54 (76480) - https://sketchapp.com -->
    <title>Group 4</title>
    <desc>Created with Sketch.</desc>
    <g id="Page-1" stroke="none" stroke-width="1" fill="none" fill-rule="evenodd">
        <g id="2" transform="translate(-70.000000, -40.000000)">
            <g id="Group-4" transform="translate(70.000000, 40.000000)">
                <path d="M39.7178071,20.517855 C39.5077161,20.517855 39.3355609,20.4565794 39.2013361,20.3340264 C39.0671114,20.2114733 39,20.0393181 39,19.8175554 L39,8.70029958 C39,8.47853694 39.0671114,8.30638168 39.2013361,8.18382864 C39.3355609,8.0612756 39.5077161,8 39.7178071,8 C39.9162263,8 40.0825458,8.0612756 40.2167705,8.18382864 C40.3509953,8.30638168 40.4181067,8.47853694 40.4181067,8.70029958 L40.4181067,19.8175554 C40.4181067,20.0393181 40.3509953,20.2114733 40.2167705,20.3340264 C40.0825458,20.4565794 39.9162263,20.517855 39.7178071,20.517855 Z M47.6399461,11.6940803 C49.7758705,11.6940803 50.8438167,12.8145484 50.8438167,15.0555183 L50.8438167,19.8175554 C50.8438167,20.0276463 50.7825411,20.1968837 50.659988,20.3252726 C50.537435,20.4536615 50.3711155,20.517855 50.1610246,20.517855 C49.9509336,20.517855 49.7816963,20.4536615 49.6533074,20.3252726 C49.5249185,20.1968837 49.460725,20.0276463 49.460725,19.8175554 L49.460725,18.9771959 C49.2389623,19.4790798 48.9004876,19.8671586 48.4452906,20.141444 C47.9900936,20.4157294 47.4648742,20.55287 46.8696165,20.55287 C46.3210458,20.55287 45.8162516,20.4419903 45.3552187,20.2202277 C44.8941858,19.998465 44.5294501,19.6891692 44.2610006,19.2923307 C43.9925511,18.8954923 43.8583283,18.4578095 43.8583283,17.979269 C43.8583283,17.3373245 44.0217299,16.8383661 44.348538,16.4823787 C44.6753462,16.1263913 45.2122371,15.8696173 45.9592271,15.7120491 C46.706217,15.5544809 47.7449844,15.475698 49.0755602,15.475698 L49.460725,15.475698 L49.460725,14.8979509 C49.460725,14.1976478 49.3177486,13.6840999 49.0317915,13.3572918 C48.7458344,13.0304837 48.2818906,12.8670821 47.6399461,12.8670821 C46.8462692,12.8670821 46.0409328,13.0830056 45.2239125,13.5148592 C44.9087761,13.7132784 44.6870168,13.8124865 44.5586279,13.8124865 C44.4185673,13.8124865 44.3018519,13.7599646 44.2084781,13.6549191 C44.1151044,13.5498737 44.0684182,13.4156509 44.0684182,13.2522469 C44.0684182,13.0888428 44.1180223,12.9458664 44.2172319,12.8233134 C44.3164415,12.7007603 44.4769252,12.5752912 44.6986878,12.4469023 C45.107198,12.213468 45.5711418,12.0296412 46.0905333,11.8954164 C46.6099247,11.7611917 47.1263905,11.6940803 47.6399461,11.6940803 Z M47.0621989,19.4323907 C47.762502,19.4323907 48.3373255,19.1960419 48.7866866,18.7233373 C49.2360478,18.2506327 49.460725,17.6407946 49.460725,16.8938047 L49.460725,16.3860875 L49.1455902,16.3860875 C48.118479,16.3860875 47.3364856,16.4298558 46.7995866,16.5173936 C46.2626875,16.6049315 45.8804445,16.7508258 45.652846,16.9550809 C45.4252475,17.159336 45.31145,17.4598782 45.31145,17.8567166 C45.31145,18.3119136 45.4777695,18.6883209 45.8104134,18.9859497 C46.1430574,19.2835785 46.560315,19.4323907 47.0621989,19.4323907 Z M60.674272,12.1667825 C60.8026609,11.8866613 61.0069129,11.7466028 61.2870342,11.7466028 C61.4621099,11.7466028 61.6196758,11.8049605 61.7597364,11.9216777 C61.899797,12.0383948 61.9698262,12.1842891 61.9698262,12.3593649 C61.9698262,12.4644104 61.9464832,12.5577827 61.8997963,12.6394847 L58.4858358,19.9926303 C58.4158055,20.1443627 58.3107616,20.263996 58.170701,20.3515339 C58.0306404,20.4390717 57.8789103,20.48284 57.7155063,20.48284 C57.563774,20.48284 57.4178797,20.4390717 57.2778191,20.3515339 C57.1377584,20.263996 57.0268788,20.1443627 56.9451768,19.9926303 L53.5487238,12.6394847 C53.5020369,12.5577827 53.4786938,12.4702461 53.4786938,12.3768724 C53.4786938,12.2017966 53.5574767,12.0500665 53.7150449,11.9216777 C53.8726131,11.7932888 54.0447684,11.7290953 54.2315159,11.7290953 C54.3482331,11.7290953 54.4620306,11.7641099 54.5729119,11.8341402 C54.6837932,11.9041705 54.7684119,12.0033786 54.8267705,12.1317675 L57.7505213,18.6970761 L60.674272,12.1667825 Z M65.340018,20.517855 C65.1299271,20.517855 64.9577718,20.4565794 64.823547,20.3340264 C64.6893223,20.2114733 64.6222109,20.0393181 64.6222109,19.8175554 L64.6222109,12.4293948 C64.6222109,12.2076322 64.6893223,12.0354769 64.823547,11.9129239 C64.9577718,11.7903709 65.1299271,11.7290953 65.340018,11.7290953 C65.5501089,11.7290953 65.7193463,11.7903709 65.8477352,11.9129239 C65.9761241,12.0354769 66.0403176,12.2076322 66.0403176,12.4293948 L66.0403176,19.8175554 C66.0403176,20.0509898 65.9761241,20.2260629 65.8477352,20.3427801 C65.7193463,20.4594973 65.5501089,20.517855 65.340018,20.517855 Z M65.340018,9.89080887 C65.0598967,9.89080887 64.8323017,9.80910807 64.6572259,9.64570401 C64.4821501,9.48229996 64.3946135,9.26637642 64.3946135,8.9979269 C64.3946135,8.74114911 64.4821501,8.53106133 64.6572259,8.36765728 C64.8323017,8.20425323 65.0598967,8.12255243 65.340018,8.12255243 C65.6201392,8.12255243 65.8477343,8.20425323 66.0228101,8.36765728 C66.1978858,8.53106133 66.2854224,8.74114911 66.2854224,8.9979269 C66.2854224,9.26637642 66.1978858,9.48229996 66.0228101,9.64570401 C65.8477343,9.80910807 65.6201392,9.89080887 65.340018,9.89080887 Z M74.0675015,11.6940803 C76.1100522,11.6940803 77.1313122,12.8203842 77.1313122,15.0730258 L77.1313122,19.8175554 C77.1313122,20.0393181 77.0700366,20.2114733 76.9474835,20.3340264 C76.8249305,20.4565794 76.6527752,20.517855 76.4310126,20.517855 C76.2092499,20.517855 76.0341768,20.4565794 75.9057879,20.3340264 C75.777399,20.2114733 75.7132055,20.0393181 75.7132055,19.8175554 L75.7132055,15.1605632 C75.7132055,14.3668864 75.5585576,13.789145 75.249257,13.4273217 C74.9399565,13.0654985 74.4468338,12.8845896 73.7698742,12.8845896 C72.9878691,12.8845896 72.3634415,13.1238562 71.8965728,13.6023966 C71.4297041,14.0809371 71.1962732,14.7287077 71.1962732,15.545728 L71.1962732,19.8175554 C71.1962732,20.0393181 71.1349976,20.2114733 71.0124446,20.3340264 C70.8898915,20.4565794 70.7177363,20.517855 70.4959736,20.517855 C70.274211,20.517855 70.0991378,20.4565794 69.970749,20.3340264 C69.8423601,20.2114733 69.7781666,20.0393181 69.7781666,19.8175554 L69.7781666,12.4293948 C69.7781666,12.2193039 69.8423601,12.0500665 69.970749,11.9216777 C70.0991378,11.7932888 70.274211,11.7290953 70.4959736,11.7290953 C70.7060646,11.7290953 70.872384,11.7932888 70.9949371,11.9216777 C71.1174901,12.0500665 71.1787657,12.2134682 71.1787657,12.4118874 L71.1787657,13.3047693 C71.458887,12.779542 71.8498836,12.3797917 72.3517675,12.1055063 C72.8536514,11.8312209 73.425557,11.6940803 74.0675015,11.6940803 Z M86.9617675,12.1667825 C87.0901564,11.8866613 87.2944084,11.7466028 87.5745297,11.7466028 C87.7496054,11.7466028 87.9071713,11.8049605 88.0472319,11.9216777 C88.1872925,12.0383948 88.2573217,12.1842891 88.2573217,12.3593649 C88.2573217,12.4644104 88.2339787,12.5577827 88.1872918,12.6394847 L83.2676872,23.2490234 C83.2093286,23.3774123 83.12471,23.4766204 83.0138286,23.5466507 C82.9029473,23.616681 82.7891498,23.6516956 82.6724326,23.6516956 C82.4973568,23.6516956 82.3427089,23.5962558 82.2084841,23.4853745 C82.0742594,23.3744932 82.007148,23.2315168 82.007148,23.056441 C82.007148,22.9630672 82.0304911,22.8696949 82.077178,22.7763212 L83.3027022,20.1326902 L79.8362193,12.6394847 C79.7895324,12.5577827 79.7661893,12.4702461 79.7661893,12.3768724 C79.7661893,12.2017966 79.8449722,12.0500665 80.0025404,11.9216777 C80.1601086,11.7932888 80.3322639,11.7290953 80.5190114,11.7290953 C80.6357286,11.7290953 80.7495261,11.7641099 80.8604074,11.8341402 C80.9712888,11.9041705 81.0559074,12.0033786 81.114266,12.1317675 L84.0380168,18.6970761 L86.9617675,12.1667825 Z M94.2361294,11.6940803 C96.3720538,11.6940803 97.44,12.8145484 97.44,15.0555183 L97.44,19.8175554 C97.44,20.0276463 97.3787244,20.1968837 97.2561714,20.3252726 C97.1336183,20.4536615 96.9672988,20.517855 96.7572079,20.517855 C96.547117,20.517855 96.3778796,20.4536615 96.2494907,20.3252726 C96.1211018,20.1968837 96.0569083,20.0276463 96.0569083,19.8175554 L96.0569083,18.9771959 C95.8351457,19.4790798 95.4966709,19.8671586 95.0414739,20.141444 C94.5862769,20.4157294 94.0610575,20.55287 93.4657999,20.55287 C92.9172291,20.55287 92.4124349,20.4419903 91.951402,20.2202277 C91.4903692,19.998465 91.1256335,19.6891692 90.8571839,19.2923307 C90.5887344,18.8954923 90.4545117,18.4578095 90.4545117,17.979269 C90.4545117,17.3373245 90.6179133,16.8383661 90.9447214,16.4823787 C91.2715295,16.1263913 91.8084205,15.8696173 92.5554104,15.7120491 C93.3024004,15.5544809 94.3411677,15.475698 95.6717436,15.475698 L96.0569083,15.475698 L96.0569083,14.8979509 C96.0569083,14.1976478 95.9139319,13.6840999 95.6279748,13.3572918 C95.3420177,13.0304837 94.8780739,12.8670821 94.2361294,12.8670821 C93.4424526,12.8670821 92.6371161,13.0830056 91.8200959,13.5148592 C91.5049595,13.7132784 91.2832002,13.8124865 91.1548113,13.8124865 C91.0147506,13.8124865 90.8980352,13.7599646 90.8046615,13.6549191 C90.7112877,13.5498737 90.6646016,13.4156509 90.6646016,13.2522469 C90.6646016,13.0888428 90.7142056,12.9458664 90.8134152,12.8233134 C90.9126248,12.7007603 91.0731085,12.5752912 91.2948712,12.4469023 C91.7033813,12.213468 92.1673251,12.0296412 92.6867166,11.8954164 C93.206108,11.7611917 93.7225738,11.6940803 94.2361294,11.6940803 Z M93.6583823,19.4323907 C94.3586853,19.4323907 94.9335088,19.1960419 95.38287,18.7233373 C95.8322311,18.2506327 96.0569083,17.6407946 96.0569083,16.8938047 L96.0569083,16.3860875 L95.7417735,16.3860875 C94.7146623,16.3860875 93.932669,16.4298558 93.3957699,16.5173936 C92.8588709,16.6049315 92.4766279,16.7508258 92.2490294,16.9550809 C92.0214309,17.159336 91.9076333,17.4598782 91.9076333,17.8567166 C91.9076333,18.3119136 92.0739528,18.6883209 92.4065968,18.9859497 C92.7392407,19.2835785 93.1564984,19.4323907 93.6583823,19.4323907 Z" id="lavinya" fill="#686B78" fill-rule="nonzero"></path>
                <path d="M3.61914438,9 L3.60229492,9 L3.9814974,8.63693528 C4.00103741,8.61810995 4.0206362,8.59934521 4.04029347,8.58064137 L13.0023332,0 L21.5609974,8.21665074 C24.2818375,10.5994789 26,14.0990903 26,18 C26,25.1797017 20.1797017,31 13,31 C5.82029825,31 0,25.1797017 0,18 C0,14.5070157 1.37760813,11.335789 3.61914438,9 Z" id="Combined-Shape" fill="#504CE5"></path>
            </g>
        </g>
    </g>
</svg>