<svg width="327" height="364" viewBox="0 0 327 364" fill="none" xmlns="http://www.w3.org/2000/svg">
<g clip-path="url(#clip0_228_257)">
<path d="M311.617 343.092C309.579 343.806 307.39 343.985 305.263 343.611C303.135 343.238 301.139 342.324 299.468 340.958C295.213 337.396 293.878 331.528 292.794 326.094L289.583 310.023L296.305 314.639C301.139 317.959 306.082 321.385 309.429 326.193C312.777 331.001 314.237 337.565 311.548 342.768" fill="#E6E6E6"/>
<path d="M311.043 362.549C311.723 357.607 312.423 352.601 311.945 347.606C311.521 343.17 310.165 338.837 307.401 335.284C305.935 333.401 304.15 331.789 302.128 330.518C301.6 330.187 301.115 331.02 301.64 331.35C305.139 333.555 307.846 336.812 309.369 340.65C311.052 344.919 311.322 349.572 311.03 354.106C310.854 356.848 310.483 359.571 310.108 362.293C310.078 362.416 310.096 362.546 310.159 362.656C310.222 362.766 310.324 362.848 310.446 362.886C310.569 362.919 310.701 362.902 310.813 362.839C310.924 362.776 311.006 362.672 311.04 362.549L311.043 362.549Z" fill="#F2F2F2"/>
<path d="M286.68 280.46H5.45312V0H286.68V280.46Z" fill="white"/>
<path d="M286.68 280.46H5.45312V0H286.68V280.46ZM9.60819 276.316H282.525V4.14377H9.60819V276.316Z" fill="#E5E5E5"/>
<path d="M236.859 43.8779H115.076V47.6612H236.859V43.8779Z" fill="#E5E5E5"/>
<path d="M236.859 53.7144H115.076V57.4976H236.859V53.7144Z" fill="#E5E5E5"/>
<path d="M236.859 63.5508H115.076V67.334H236.859V63.5508Z" fill="#E5E5E5"/>
<path d="M236.859 128.342H115.076V132.125H236.859V128.342Z" fill="#E5E5E5"/>
<path d="M236.859 138.178H115.076V141.961H236.859V138.178Z" fill="#E5E5E5"/>
<path d="M236.859 148.015H115.076V151.798H236.859V148.015Z" fill="#E5E5E5"/>
<path d="M236.859 212.805H115.076V216.588H236.859V212.805Z" fill="#E5E5E5"/>
<path d="M236.859 222.642H115.076V226.425H236.859V222.642Z" fill="#E5E5E5"/>
<path d="M236.859 232.478H115.076V236.261H236.859V232.478Z" fill="#E5E5E5"/>
<path d="M66.3242 74.0211C64.2438 72.9278 62.0722 72.0164 59.8338 71.2972L59.5484 68.1485L47.9731 66.9048L46.502 70.9294L42.3479 72.484C42.1992 72.5402 42.0577 72.6137 41.9263 72.703H41.9218C41.69 72.8592 41.4925 73.061 41.3415 73.2959C41.1905 73.5308 41.0891 73.794 41.0435 74.0693C40.9992 74.3431 41.0097 74.6229 41.0744 74.8926L41.294 75.7904C41.6101 75.9787 41.9351 76.1582 42.2599 76.329L42.4664 76.4341C42.9407 76.6794 43.4238 76.9115 43.92 77.126C44.0209 77.1698 44.1307 77.2136 44.2317 77.2574C44.2405 77.2618 44.2448 77.2618 44.2536 77.2662C44.4865 77.3625 44.7191 77.4545 44.9562 77.5421C45.7352 77.8388 46.5297 78.0931 47.3363 78.3041C49.3948 78.8512 51.5162 79.128 53.6466 79.1274C54.4238 79.1274 55.1923 79.0923 55.952 79.0179C57.6878 78.8581 59.4015 78.5131 61.0635 77.9888C61.0678 77.9888 61.0723 77.9844 61.0766 77.9844C62.1265 77.6508 63.1521 77.2455 64.1462 76.7713C64.1505 76.7669 64.1593 76.7669 64.1638 76.7626C64.3876 76.6575 64.6029 76.5436 64.8225 76.4341L64.9277 76.3815C65.1033 76.2896 65.2792 76.1976 65.4548 76.1013C65.8939 75.8604 66.3242 75.6064 66.7501 75.3349C66.8686 75.2648 66.9829 75.1904 67.1015 75.1116C67.2683 75.0021 67.4351 74.8882 67.5977 74.77C67.1892 74.5072 66.7634 74.2576 66.3242 74.0211Z" fill="#3F3D56"/>
<path d="M44.6002 75.9608L43.8757 72.6982H41.983C41.9639 72.6985 41.9449 72.7 41.926 72.7026H41.9215C41.2413 72.76 40.5863 72.9858 40.0158 73.3595C39.6288 73.6059 39.2847 73.9135 38.9971 74.2704C39.5591 74.6952 40.1431 75.0893 40.7448 75.4659L40.7711 75.4791C40.9423 75.5842 41.1181 75.6893 41.2937 75.79C41.6098 75.9783 41.9348 76.1579 42.2597 76.3287L42.4662 76.4338C42.9404 76.679 43.4235 76.9111 43.9197 77.1257C44.0207 77.1695 44.1305 77.2133 44.2314 77.2571C44.2402 77.2615 44.2445 77.2615 44.2533 77.2658C44.4862 77.3622 44.7188 77.4541 44.956 77.5417L44.6002 75.9608Z" fill="#3F3D56"/>
<path d="M53.3064 64.914C57.9106 64.914 61.643 61.1917 61.643 56.6001C61.643 52.0084 57.9106 48.2861 53.3064 48.2861C48.7022 48.2861 44.9697 52.0084 44.9697 56.6001C44.9697 61.1917 48.7022 64.914 53.3064 64.914Z" fill="#FFB8B8"/>
<path d="M47.709 52.5504C48.572 53.5689 50.0325 53.8563 51.3797 53.9741C54.5295 54.1476 57.6883 53.8904 60.7682 53.2096C60.959 55.0542 60.4387 57.0431 61.5282 58.5605C62.0389 56.7235 62.3358 54.834 62.4132 52.9292C62.4945 52.1119 62.3875 51.287 62.1004 50.5173C61.9468 50.1315 61.6879 49.7965 61.3529 49.5502C61.018 49.3039 60.6205 49.1563 60.2056 49.1241C60.8266 48.6542 61.5542 48.3441 62.3239 48.221L59.6768 46.8943L60.3566 46.1984L55.5642 45.9059L56.9523 45.0265C54.8632 44.7402 52.7496 44.6737 50.6466 44.828C49.6638 44.8284 48.6997 45.0957 47.8577 45.6011C47.0664 46.1654 46.6092 47.2869 47.1004 48.1154C46.4854 48.2161 45.9064 48.4718 45.4182 48.8581C44.93 49.2444 44.5487 49.7486 44.3106 50.323C44.0095 51.2359 43.9367 52.2085 44.0988 53.1559C44.2794 54.6759 44.6336 56.1703 45.1546 57.6101L47.709 52.5504Z" fill="#2F2E41"/>
<path d="M76.7488 47.5874C75.5791 44.2363 73.6905 41.1799 71.2147 38.6315C68.7389 36.0831 65.7355 34.104 62.4139 32.8321C59.0923 31.5602 55.5325 31.0262 51.9827 31.2673C48.4329 31.5085 44.9785 32.5189 41.8606 34.2282C38.7426 35.9375 36.036 38.3045 33.9295 41.1642C31.8231 44.0238 30.3675 47.3073 29.6642 50.7856C28.961 54.264 29.027 57.8534 29.8577 61.3037C30.6884 64.7539 32.2638 67.982 34.474 70.7626C34.6936 71.0385 34.9219 71.3144 35.1548 71.5816C35.1724 71.5991 35.1855 71.6166 35.203 71.6341C35.7754 72.2919 36.3838 72.9176 37.0254 73.5084C37.1924 73.6617 37.368 73.8194 37.5436 73.9683C37.8772 74.2661 38.2199 74.5507 38.5756 74.8222C38.716 74.9317 38.8522 75.0412 38.9971 75.1463C39.5591 75.5711 40.1432 75.9652 40.7449 76.3419L40.7712 76.355C40.9423 76.4601 41.1182 76.5652 41.2938 76.6659C41.6099 76.8542 41.9349 77.0338 42.2597 77.2046L42.4662 77.3097C42.9405 77.5549 43.4236 77.787 43.9198 78.0016C44.0207 78.0454 44.1305 78.0892 44.2315 78.133C44.2403 78.1374 44.2446 78.1374 44.2534 78.1418C44.4862 78.2381 44.7189 78.3301 44.956 78.4177C45.735 78.7144 46.5295 78.9687 47.3361 79.1797C49.3946 79.7268 51.516 80.0036 53.6464 80.003C54.4236 80.003 55.1921 79.9679 55.9518 79.8935C57.6876 79.7337 59.4013 79.3887 61.0633 78.8644C61.0676 78.8644 61.0721 78.86 61.0764 78.86C62.1263 78.5264 63.1519 78.1211 64.146 77.6469C64.1503 77.6425 64.1591 77.6425 64.1636 77.6382C64.3874 77.533 64.6027 77.4192 64.8223 77.3097L64.9275 77.2571C65.1031 77.1652 65.279 77.0732 65.4546 76.9769C65.8937 76.736 66.324 76.482 66.7499 76.2105C66.8684 76.1404 66.9827 76.066 67.1013 75.9871C67.2681 75.8777 67.4349 75.7638 67.5975 75.6455C67.8125 75.4967 68.0278 75.3434 68.2386 75.1857C68.3044 75.1376 68.3747 75.0894 68.4405 75.0368C72.5546 71.9227 75.5743 67.5894 77.0668 62.6583C78.5593 57.7272 78.448 52.4515 76.7488 47.5874ZM67.6326 73.9726C67.4877 74.0865 67.3384 74.196 67.189 74.2967C67.0441 74.4062 66.8993 74.5113 66.7499 74.6076C66.6225 74.6996 66.4951 74.7872 66.3635 74.8704L66.324 74.8967C66.2273 74.9624 66.1308 75.0237 66.0341 75.085C65.6696 75.3127 65.3008 75.5317 64.9275 75.7419L64.809 75.8076C64.6421 75.8996 64.4753 75.9872 64.3085 76.0747C64.2864 76.0879 64.26 76.0966 64.2382 76.1098L64.2118 76.1229C64.0011 76.2324 63.7858 76.3375 63.5707 76.4382C62.7404 76.837 61.8853 77.1822 61.0106 77.4717C60.8963 77.5111 60.7822 77.5506 60.6682 77.5856C59.095 78.0846 57.4726 78.4135 55.8289 78.5666C55.1087 78.6323 54.3797 78.6673 53.6464 78.6673C51.6314 78.6714 49.6247 78.4093 47.6787 77.8878C46.68 77.6278 45.7012 77.2971 44.7498 76.8981C44.7013 76.8761 44.6486 76.8586 44.6003 76.8368C44.5478 76.8149 44.4993 76.7973 44.4511 76.7754C44.3983 76.7535 44.3501 76.7316 44.2973 76.7054C43.8846 76.5258 43.4761 76.3287 43.0767 76.1229L42.8835 76.0222C42.3959 75.7682 41.9173 75.4967 41.4518 75.2076C41.3156 75.1244 41.1752 75.0369 41.0434 74.9449C41.0084 74.923 40.9775 74.9011 40.9424 74.8792C40.6306 74.6733 40.3188 74.4588 40.0159 74.2354C39.8096 74.0821 39.6031 73.9289 39.4011 73.7712C39.063 73.5172 38.7379 73.2457 38.4219 72.9654C38.2551 72.8253 38.0925 72.672 37.9345 72.5275C37.3119 71.9542 36.7225 71.3459 36.1692 70.7057C35.9848 70.4955 35.8047 70.2853 35.6334 70.0663C35.5944 70.023 35.5578 69.9777 35.5236 69.9306C32.6704 66.3401 30.9543 61.9834 30.594 57.4163C30.2338 52.8491 31.2457 48.2785 33.5008 44.2872C35.7558 40.2959 39.1518 37.0649 43.2557 35.0062C47.3595 32.9476 51.9852 32.1545 56.5428 32.7283C61.1005 33.302 65.3834 35.2165 68.8456 38.2277C72.3077 41.2388 74.7921 45.2101 75.9818 49.635C77.1716 54.0599 77.0129 58.738 75.5259 63.0726C74.0388 67.4072 71.291 71.2018 67.6326 73.9726Z" fill="#3F3D56"/>
<path d="M76.7488 132.051C75.5791 128.7 73.6905 125.644 71.2147 123.095C68.7389 120.547 65.7355 118.568 62.4139 117.296C59.0923 116.024 55.5325 115.49 51.9827 115.731C48.4329 115.972 44.9785 116.983 41.8605 118.692C38.7426 120.401 36.036 122.768 33.9295 125.628C31.8231 128.488 30.3675 131.771 29.6642 135.249C28.961 138.728 29.027 142.317 29.8577 145.767C30.6884 149.218 32.2638 152.446 34.474 155.226C34.6936 155.502 34.9219 155.778 35.1546 156.045C35.1721 156.063 35.1852 156.08 35.2028 156.098C35.7753 156.756 36.3838 157.381 37.0253 157.972C37.1922 158.126 37.3678 158.283 37.5434 158.432C37.8772 158.73 38.2196 159.015 38.5754 159.286C39.2699 159.832 39.9941 160.339 40.7446 160.806L40.771 160.819C41.2584 161.121 41.7545 161.401 42.2597 161.668L42.466 161.774C42.9403 162.019 43.4234 162.251 43.9195 162.465C44.0205 162.509 44.1303 162.553 44.2313 162.597C44.2401 162.601 44.2446 162.601 44.2534 162.606C45.2559 163.021 46.2859 163.368 47.336 163.643C49.3945 164.191 51.5158 164.467 53.6461 164.467C54.4234 164.467 55.1919 164.432 55.9515 164.357C57.6874 164.198 59.401 163.853 61.0631 163.328C61.0676 163.328 61.0718 163.324 61.0761 163.324C62.1261 162.99 63.1517 162.585 64.1457 162.111C64.15 162.106 64.159 162.106 64.1633 162.102C64.3872 161.997 64.6024 161.883 64.822 161.773L64.9275 161.721C65.1031 161.629 65.2787 161.537 65.4543 161.441C65.8934 161.2 66.3238 160.946 66.7498 160.674C66.8684 160.604 66.9825 160.53 67.101 160.451C67.4874 160.197 67.8695 159.925 68.2383 159.65C68.3044 159.601 68.3745 159.553 68.4405 159.501C72.5544 156.386 75.574 152.053 77.0665 147.122C78.559 142.191 78.4478 136.915 76.7488 132.051Z" fill="white"/>
<path d="M61.719 150.127C63.7438 150.127 65.3853 148.49 65.3853 146.47C65.3853 144.451 63.7438 142.814 61.719 142.814C59.6942 142.814 58.0527 144.451 58.0527 146.47C58.0527 148.49 59.6942 150.127 61.719 150.127Z" fill="#2F2E41"/>
<path d="M62.7402 142.915C63.3747 142.915 63.9984 143.079 64.5502 143.391C65.1021 143.704 65.5632 144.153 65.8884 144.697C66.2137 145.24 66.392 145.858 66.4059 146.491C66.4198 147.124 66.2688 147.749 65.9677 148.306C66.2855 147.91 66.5169 147.451 66.6473 146.961C66.7777 146.47 66.8041 145.958 66.725 145.456C66.6458 144.955 66.4627 144.475 66.1875 144.048C65.9122 143.621 65.5507 143.256 65.1262 142.976C64.7016 142.696 64.2231 142.507 63.7213 142.421C63.2196 142.336 62.7054 142.356 62.2117 142.479C61.7179 142.603 61.2554 142.828 60.8536 143.139C60.4518 143.451 60.1195 143.843 59.8779 144.29C60.2207 143.86 60.6561 143.514 61.1517 143.276C61.6474 143.038 62.19 142.914 62.7402 142.915Z" fill="#2F2E41"/>
<path d="M54.8677 146.462C60.8158 146.462 65.6377 141.654 65.6377 135.722C65.6377 129.79 60.8158 124.981 54.8677 124.981C48.9196 124.981 44.0977 129.79 44.0977 135.722C44.0977 141.654 48.9196 146.462 54.8677 146.462Z" fill="#2F2E41"/>
<path d="M46.4152 129.058C48.271 126.976 50.865 125.695 53.6498 125.485C56.4346 125.275 59.1924 126.152 61.3411 127.931C61.2533 127.848 61.1655 127.764 61.0746 127.683C58.947 125.782 56.1495 124.802 53.2974 124.958C50.4454 125.114 47.7723 126.394 45.8664 128.516C43.9604 130.638 42.9777 133.427 43.1344 136.272C43.2911 139.116 44.5743 141.782 46.7019 143.683C46.7223 143.701 46.7428 143.719 46.7634 143.737C46.8547 143.818 46.9487 143.895 47.0423 143.972C45.0189 142.053 43.8225 139.424 43.7055 136.641C43.5886 133.859 44.5599 131.139 46.4152 129.058Z" fill="#2F2E41"/>
<path d="M54.7763 146.371C58.6072 146.371 61.7127 143.274 61.7127 139.454C61.7127 135.633 58.6072 132.536 54.7763 132.536C50.9454 132.536 47.8398 135.633 47.8398 139.454C47.8398 143.274 50.9454 146.371 54.7763 146.371Z" fill="#A0616A"/>
<path d="M67.1896 157.477V159.798C66.7636 160.07 66.3332 160.324 65.8941 160.565C65.7185 160.661 65.5429 160.753 65.3673 160.845L65.2618 160.898C65.0422 161.007 64.827 161.121 64.6031 161.226C64.5988 161.23 64.5898 161.23 64.5855 161.235C63.5915 161.709 62.5658 162.114 61.5159 162.448C61.5116 162.448 61.5073 162.452 61.5028 162.452C59.8408 162.977 58.1272 163.322 56.3913 163.481C55.6317 163.556 54.8632 163.591 54.0859 163.591C51.9556 163.591 49.8343 163.315 47.7758 162.768C46.7257 162.492 45.6957 162.145 44.6932 161.73C44.6844 161.725 44.6799 161.725 44.6711 161.721C44.5701 161.677 44.4603 161.633 44.3593 161.589C43.8631 161.375 43.3801 161.143 42.9058 160.898L42.6995 160.792C42.1943 160.525 41.6982 160.245 41.2108 159.943L41.1844 159.93C40.4339 159.463 39.7097 158.956 39.0152 158.41C38.6594 158.139 38.317 157.854 37.9832 157.556C37.8076 157.407 37.632 157.25 37.4651 157.096C36.8236 156.505 36.2151 155.88 35.6426 155.222C35.7185 154.766 35.8301 154.316 35.9764 153.878L35.9807 153.873C36.007 153.798 36.0378 153.725 36.0729 153.654C36.0971 153.591 36.125 153.53 36.1563 153.47C36.9424 152.003 38.3653 151.64 40.1306 151.561C41.1274 151.517 42.2295 151.565 43.3934 151.552C44.0081 151.548 44.6447 151.526 45.2815 151.469C49.2995 151.105 48.5707 148.741 48.7506 147.466C48.9307 146.231 50.0461 147.3 50.1207 147.37L50.125 147.374C52.3988 148.435 54.9144 148.875 57.4146 148.649C57.8449 148.596 58.2752 148.565 58.7056 148.552C59.8385 148.539 59.5926 148.863 59.2019 149.13C59.0123 149.255 58.8142 149.366 58.6091 149.463C58.6091 149.463 58.429 150.558 58.2446 152.196C58.069 153.764 61.0813 154.499 61.3316 154.556C61.3367 154.56 61.3429 154.561 61.3491 154.561C62.4492 154.276 63.6075 154.307 64.691 154.648H64.6953C65.3145 154.875 65.8669 155.253 66.3025 155.747C66.7381 156.241 67.043 156.836 67.1896 157.477Z" fill="#47C7A6"/>
<path d="M44.7361 160.293C44.7361 160.617 44.7275 160.928 44.7142 161.222C44.7099 161.397 44.7011 161.568 44.6923 161.73C44.6835 161.725 44.679 161.725 44.6702 161.721C44.5692 161.677 44.4595 161.633 44.3585 161.589C43.8623 161.375 43.3792 161.143 42.9049 160.898L42.6987 160.792C42.1935 160.525 41.6973 160.245 41.21 159.943C41.223 159.79 41.2451 159.636 41.267 159.483C41.3152 159.146 41.3549 158.804 41.3813 158.467C41.5539 156.098 41.1234 153.724 40.1297 151.565V151.561C40.0418 151.386 39.9893 151.289 39.9893 151.289C39.9893 151.289 41.267 150.194 43.0893 151.289C43.2057 151.358 43.3085 151.447 43.3925 151.552C44.4903 152.844 44.7888 157.188 44.7361 160.293Z" fill="#2F2E41"/>
<path d="M64.6772 159.698C64.6596 160.188 64.6332 160.7 64.6025 161.222V161.226C64.5982 161.23 64.5892 161.23 64.5849 161.235C63.5909 161.709 62.5653 162.114 61.5153 162.448C61.5111 162.448 61.5068 162.452 61.5023 162.452L61.454 161.222L61.4495 161.059L61.2169 155.069C61.2107 154.933 61.232 154.798 61.2798 154.67C61.3275 154.543 61.4005 154.427 61.4945 154.329C61.5885 154.231 61.7014 154.152 61.8266 154.099C61.9517 154.045 62.0864 154.018 62.2225 154.018H64.4488C64.5586 154.018 64.6377 154.241 64.6904 154.644V154.648C64.7984 156.33 64.794 158.017 64.6772 159.698Z" fill="#2F2E41"/>
<path d="M48.8438 130.807V137.726H50.4501L52.4942 135.542L52.2207 137.726H59.3213L58.8822 135.542L59.7605 137.726H60.8925V130.807H48.8438Z" fill="#2F2E41"/>
<path d="M47.7488 138.999C48.0512 138.999 48.2964 138.551 48.2964 137.998C48.2964 137.445 48.0512 136.997 47.7488 136.997C47.4463 136.997 47.2012 137.445 47.2012 137.998C47.2012 138.551 47.4463 138.999 47.7488 138.999Z" fill="#A0616A"/>
<path d="M61.8044 138.999C62.1069 138.999 62.352 138.551 62.352 137.998C62.352 137.445 62.1069 136.997 61.8044 136.997C61.502 136.997 61.2568 137.445 61.2568 137.998C61.2568 138.551 61.502 138.999 61.8044 138.999Z" fill="#A0616A"/>
<path d="M68.678 158.774C68.3092 159.05 67.9271 159.321 67.5407 159.575C67.4222 159.654 67.3081 159.728 67.1895 159.798C66.7635 160.07 66.3331 160.324 65.894 160.565C65.7184 160.661 65.5428 160.753 65.3672 160.845V156.019C65.3672 156.019 66.0696 156.58 67.1895 157.512C67.3299 157.631 67.4749 157.753 67.6286 157.885C67.9535 158.156 68.3049 158.454 68.678 158.774Z" fill="#6C63FF"/>
<path d="M76.7488 132.051C75.5791 128.7 73.6905 125.644 71.2147 123.095C68.7389 120.547 65.7355 118.568 62.4139 117.296C59.0923 116.024 55.5325 115.49 51.9827 115.731C48.4329 115.972 44.9785 116.983 41.8605 118.692C38.7426 120.401 36.036 122.768 33.9295 125.628C31.8231 128.488 30.3675 131.771 29.6642 135.249C28.961 138.728 29.027 142.317 29.8577 145.767C30.6884 149.218 32.2638 152.446 34.474 155.226C34.6936 155.502 34.9219 155.778 35.1546 156.045C35.1721 156.063 35.1852 156.08 35.2028 156.098C35.7753 156.756 36.3838 157.381 37.0253 157.972C37.1922 158.126 37.3678 158.283 37.5434 158.432C37.8772 158.73 38.2196 159.015 38.5754 159.286C39.2699 159.832 39.9941 160.339 40.7446 160.806L40.771 160.819C41.2584 161.121 41.7545 161.401 42.2597 161.668L42.466 161.774C42.9403 162.019 43.4234 162.251 43.9195 162.465C44.0205 162.509 44.1303 162.553 44.2313 162.597C44.2401 162.601 44.2446 162.601 44.2534 162.606C45.2559 163.021 46.2859 163.368 47.336 163.643C49.3945 164.191 51.5158 164.467 53.6461 164.467C54.4234 164.467 55.1919 164.432 55.9515 164.357C57.6874 164.198 59.401 163.853 61.0631 163.328C61.0676 163.328 61.0718 163.324 61.0761 163.324C62.1261 162.99 63.1517 162.585 64.1457 162.111C64.15 162.106 64.159 162.106 64.1633 162.102C64.3872 161.997 64.6024 161.883 64.822 161.773L64.9275 161.721C65.1031 161.629 65.2787 161.537 65.4543 161.441C65.8934 161.2 66.3238 160.946 66.7498 160.674C66.8684 160.604 66.9825 160.53 67.101 160.451C67.4874 160.197 67.8695 159.925 68.2383 159.65C68.3044 159.601 68.3745 159.553 68.4405 159.501C72.5544 156.386 75.574 152.053 77.0665 147.122C78.559 142.191 78.4478 136.915 76.7488 132.051ZM67.6324 158.436C67.4874 158.55 67.3382 158.66 67.189 158.761C67.044 158.87 66.8991 158.975 66.7498 159.071C66.6225 159.163 66.4951 159.251 66.3633 159.334C66.2535 159.409 66.1437 159.479 66.0339 159.549C65.6696 159.777 65.3008 159.996 64.9275 160.206L64.8087 160.271C64.6419 160.363 64.4751 160.451 64.3083 160.539C64.2862 160.552 64.2598 160.56 64.238 160.574L64.2116 160.587C64.0008 160.696 63.7857 160.801 63.5705 160.902C62.7402 161.301 61.885 161.646 61.0103 161.936C60.8963 161.975 60.782 162.014 60.6679 162.049C59.0947 162.548 57.4724 162.877 55.8287 163.03C55.1085 163.096 54.3794 163.131 53.6461 163.131C51.6311 163.135 49.6244 162.873 47.6785 162.352C46.6798 162.092 45.701 161.761 44.7495 161.362C44.6485 161.322 44.5475 161.279 44.4508 161.239C44.3983 161.217 44.3499 161.195 44.2971 161.169C43.8844 160.99 43.4761 160.793 43.0764 160.587L42.8833 160.486C42.3959 160.232 41.9171 159.96 41.4516 159.671C41.2805 159.566 41.1091 159.457 40.9423 159.343C40.4153 158.997 39.9016 158.625 39.4009 158.235C39.0628 157.981 38.7379 157.709 38.4216 157.429C38.2548 157.289 38.0923 157.136 37.9343 156.991C37.3117 156.418 36.7223 155.81 36.169 155.17C35.9846 154.959 35.8045 154.749 35.6331 154.53C35.5942 154.487 35.5575 154.442 35.5234 154.394C32.6702 150.804 30.9541 146.447 30.5938 141.88C30.2335 137.313 31.2455 132.742 33.5005 128.751C35.7556 124.76 39.1516 121.529 43.2555 119.47C47.3593 117.411 51.985 116.618 56.5426 117.192C61.1002 117.766 65.3832 119.68 68.8453 122.691C72.3074 125.703 74.7918 129.674 75.9816 134.099C77.1714 138.524 77.0126 143.202 75.5256 147.536C74.0386 151.871 71.2907 155.666 67.6324 158.436Z" fill="#3F3D56"/>
<path d="M53.7848 235.499C59.0782 235.499 63.3694 231.219 63.3694 225.94C63.3694 220.661 59.0782 216.382 53.7848 216.382C48.4914 216.382 44.2002 220.661 44.2002 225.94C44.2002 231.219 48.4914 235.499 53.7848 235.499Z" fill="#2F2E41"/>
<path d="M46.303 220.787C47.8519 219.242 48.1658 217.051 47.0041 215.893C45.8425 214.734 43.6452 215.047 42.0964 216.592C40.5476 218.137 40.2337 220.328 41.3953 221.486C42.5569 222.645 44.7542 222.332 46.303 220.787Z" fill="#2F2E41"/>
<path d="M63.7744 217.752C64.4198 216.245 63.31 214.328 61.2957 213.47C59.2814 212.612 57.1253 213.138 56.48 214.644C55.8347 216.151 56.9444 218.068 58.9587 218.926C60.9731 219.784 63.1291 219.258 63.7744 217.752Z" fill="#2F2E41"/>
<path d="M65.2489 244.482L64.1196 242.71C63.6404 241.642 62.7566 240.807 61.6616 240.388C60.5667 239.97 59.3499 240.001 58.2777 240.475C57.2056 240.948 56.3655 241.827 55.9415 242.917C55.5174 244.008 55.544 245.221 56.0154 246.292L56.3365 247.441L56.702 248.743C58.1814 248.557 59.6412 248.239 61.0639 247.794C61.0681 247.793 61.0721 247.791 61.075 247.788C62.1267 247.456 63.1534 247.051 64.1474 246.574C64.1528 246.568 64.1582 246.568 64.1639 246.563C64.3853 246.458 64.6012 246.348 64.8226 246.237C64.8588 246.221 64.8939 246.202 64.9278 246.182C65.1048 246.094 65.2821 246 65.4537 245.906C65.6308 245.812 65.8023 245.713 65.9684 245.608L65.2489 244.482Z" fill="#CACACA"/>
<path d="M54.0885 236.335C58.5809 236.335 62.2228 232.703 62.2228 228.223C62.2228 223.742 58.5809 220.11 54.0885 220.11C49.596 220.11 45.9541 223.742 45.9541 228.223C45.9541 232.703 49.596 236.335 54.0885 236.335Z" fill="#FFB6B6"/>
<path d="M65.8361 244.134C64.9388 242.646 63.825 241.299 62.5312 240.137C61.645 239.347 60.498 238.911 59.3096 238.911H47.8508C47.1905 238.911 46.5372 239.046 45.9312 239.307C45.3253 239.569 44.7795 239.951 44.3276 240.431C43.8758 240.911 43.5274 241.479 43.3041 242.099C43.0808 242.718 42.9873 243.377 43.0293 244.034C43.0543 244.405 43.1213 244.772 43.2288 245.127C43.3105 245.385 43.4122 245.636 43.5332 245.878L44.0978 247.004C44.1421 247.021 44.1864 247.043 44.2305 247.059C44.2416 247.065 44.2473 247.065 44.2526 247.07C44.4851 247.164 44.7178 247.258 44.9557 247.346C45.7346 247.643 46.5293 247.898 47.3361 248.108C48.6349 248.456 49.9606 248.694 51.2994 248.82C52.08 248.892 52.8606 248.931 53.6466 248.931C54.4272 248.931 55.1911 248.892 55.9549 248.82C56.2041 248.798 56.4531 248.771 56.7023 248.743C58.1817 248.557 59.6415 248.239 61.0642 247.794C61.0685 247.793 61.0724 247.791 61.0753 247.788C62.127 247.456 63.1537 247.05 64.1477 246.574C64.1531 246.568 64.1585 246.568 64.1642 246.563C64.3856 246.458 64.6015 246.347 64.8229 246.237C64.8591 246.221 64.8942 246.202 64.9281 246.182C65.1051 246.093 65.2824 245.999 65.454 245.906C65.6311 245.812 65.8026 245.712 65.9687 245.607C66.146 245.514 66.312 245.409 66.4836 245.304C66.2734 244.89 66.0574 244.503 65.8361 244.134Z" fill="#FBAF5D"/>
<path d="M49.9268 240.391C48.8664 239.896 47.6528 239.84 46.5512 240.235C45.4496 240.63 44.5497 241.445 44.0483 242.499L43.0295 244.034L42.5425 244.768L41.8008 245.884C41.9557 245.966 42.1051 246.049 42.2603 246.132L42.4649 246.237C42.9411 246.48 43.4225 246.712 43.921 246.927C43.9761 246.955 44.0372 246.977 44.098 247.004C44.1423 247.021 44.1866 247.043 44.2307 247.059C44.2418 247.065 44.2475 247.065 44.2529 247.07C44.4853 247.164 44.718 247.258 44.9559 247.346C45.7348 247.643 46.5295 247.898 47.3363 248.108C48.6351 248.456 49.9608 248.694 51.2996 248.82L51.6872 247.512L52.0637 246.264C52.56 245.203 52.6137 243.988 52.2131 242.887C51.8125 241.786 50.9903 240.888 49.9268 240.391Z" fill="#FBAF5D"/>
<path d="M45.541 223.12C47.3998 224.398 49.6061 225.078 51.8637 225.069C51.0584 225.625 50.1416 226.002 49.1765 226.171C52.1781 226.813 55.2802 226.831 58.2888 226.222C58.9576 226.115 59.6029 225.894 60.1964 225.569C60.4922 225.404 60.7498 225.179 60.9527 224.908C61.1555 224.638 61.299 224.328 61.3738 223.998C61.5737 222.859 60.6838 221.825 59.759 221.127C58.3429 220.076 56.7103 219.351 54.9791 219.006C53.2478 218.661 51.4614 218.704 49.7489 219.132C48.6079 219.361 47.5696 219.946 46.7843 220.803C46.4043 221.239 46.1749 221.785 46.13 222.361C46.0851 222.937 46.227 223.512 46.5348 224.001L45.541 223.12Z" fill="#2F2E41"/>
<path d="M76.7524 216.515C75.5829 213.163 73.6945 210.107 71.2187 207.558C68.7429 205.009 65.7394 203.03 62.4176 201.757C59.0959 200.485 55.5358 199.951 51.9858 200.192C48.4357 200.433 44.9811 201.444 41.8629 203.153C38.7447 204.862 36.0379 207.23 33.9313 210.089C31.8248 212.949 30.3692 216.233 29.666 219.712C28.9629 223.19 29.0291 226.78 29.86 230.23C30.691 233.681 32.2668 236.909 34.4774 239.69C34.6931 239.966 34.9258 240.242 35.1582 240.507C35.1716 240.526 35.1864 240.545 35.2026 240.562C35.7758 241.219 36.3857 241.844 37.0292 242.433C37.1952 242.588 37.3668 242.748 37.5441 242.897C37.876 243.195 38.2193 243.477 38.5791 243.747C38.7174 243.858 38.8558 243.968 38.9999 244.073C39.5589 244.498 40.1457 244.89 40.7436 245.271C40.7538 245.271 40.7636 245.275 40.7711 245.282C40.9428 245.387 41.1201 245.492 41.2971 245.591C41.4631 245.691 41.6347 245.79 41.8009 245.884C41.9558 245.967 42.1053 246.049 42.2604 246.132L42.465 246.237C42.9413 246.48 43.4227 246.712 43.9211 246.927C43.9762 246.955 44.0374 246.977 44.0981 247.004C44.1425 247.021 44.1868 247.043 44.2309 247.06C44.2419 247.065 44.2476 247.065 44.253 247.071C44.4854 247.164 44.7182 247.258 44.956 247.347C45.735 247.644 46.5297 247.898 47.3365 248.108C48.6352 248.456 49.961 248.694 51.2998 248.821C52.0804 248.892 52.861 248.931 53.647 248.931C54.4276 248.931 55.1914 248.892 55.9553 248.821C56.2045 248.799 56.4534 248.771 56.7026 248.743C58.1821 248.557 59.6419 248.239 61.0646 247.794C61.0688 247.793 61.0727 247.791 61.0757 247.788C62.1273 247.456 63.154 247.051 64.1481 246.574C64.1535 246.568 64.1589 246.568 64.1646 246.563C64.3859 246.458 64.6019 246.347 64.8233 246.237C64.8594 246.221 64.8946 246.202 64.9284 246.182C65.1055 246.093 65.2828 246 65.4544 245.906C65.6315 245.812 65.803 245.713 65.969 245.608C66.1464 245.514 66.3123 245.409 66.484 245.304C66.5726 245.249 66.6612 245.194 66.7497 245.138C66.8716 245.067 66.9821 244.995 67.104 244.912C67.27 244.807 67.4362 244.691 67.5965 244.575C67.8125 244.426 68.0284 244.272 68.2387 244.112C68.3096 244.066 68.378 244.016 68.4436 243.963C72.5544 240.846 75.5718 236.513 77.0641 231.583C78.5565 226.653 78.4474 221.379 76.7524 216.515ZM67.6354 242.897C67.4914 243.013 67.3419 243.124 67.1927 243.223C67.0429 243.333 66.8992 243.438 66.7497 243.538C66.6224 243.626 66.495 243.714 66.3624 243.797C66.3503 243.807 66.3373 243.817 66.3234 243.825C66.2294 243.891 66.1296 243.952 66.0356 244.012C65.9691 244.051 65.9029 244.095 65.8364 244.134C65.6426 244.255 65.4488 244.371 65.2496 244.482C65.1444 244.548 65.0336 244.609 64.9285 244.669C64.8898 244.691 64.8509 244.713 64.8122 244.735C64.6406 244.829 64.4746 244.912 64.3084 245C64.2865 245.017 64.2587 245.023 64.2422 245.039C64.2319 245.039 64.222 245.043 64.2143 245.05C64.004 245.161 63.7881 245.265 63.5724 245.365C62.7412 245.764 61.885 246.109 61.0092 246.397C60.8987 246.436 60.7824 246.48 60.6716 246.513C59.2599 246.96 57.8084 247.27 56.3372 247.441C56.1712 247.463 55.9996 247.479 55.828 247.496C55.1085 247.562 54.3833 247.595 53.647 247.595C52.9937 247.595 52.335 247.568 51.6874 247.512C50.3334 247.4 48.9922 247.167 47.6798 246.817C46.6807 246.557 45.702 246.225 44.7515 245.823C44.7015 245.801 44.6517 245.784 44.602 245.762C44.5466 245.74 44.5023 245.724 44.4525 245.702C44.3971 245.679 44.3528 245.657 44.2974 245.63C43.9376 245.475 43.5779 245.304 43.2292 245.127C43.1792 245.1 43.1295 245.078 43.0797 245.05L42.8859 244.951C42.7697 244.89 42.6535 244.829 42.5427 244.769C42.1718 244.57 41.8064 244.355 41.4523 244.134C41.3193 244.051 41.1755 243.963 41.0425 243.874L40.9428 243.808C40.6328 243.598 40.323 243.388 40.0184 243.162C39.8135 243.008 39.6032 242.859 39.404 242.698C39.0664 242.444 38.7397 242.174 38.4242 241.892C38.258 241.754 38.0921 241.6 37.9372 241.456C37.3138 240.884 36.7242 240.275 36.1714 239.635C35.9886 239.425 35.8059 239.215 35.6343 238.994C35.5956 238.95 35.5624 238.906 35.5235 238.856C32.6697 235.265 30.953 230.908 30.5923 226.341C30.2317 221.773 31.2435 217.201 33.4986 213.21C35.7537 209.218 39.15 205.986 43.2543 203.927C47.3586 201.868 51.9848 201.074 56.5431 201.648C61.1013 202.221 65.385 204.136 68.8477 207.147C72.3104 210.159 74.7952 214.131 75.9853 218.556C77.1754 222.982 77.0167 227.66 75.5296 231.995C74.0425 236.331 71.2942 240.126 67.6354 242.897Z" fill="#3F3D56"/>
<path d="M94.5729 97.32C86.0548 90.1519 75.6312 85.6075 64.5705 84.2396C53.5098 82.8717 42.2888 84.7394 32.2731 89.6155C22.2574 94.4915 13.8787 102.166 8.1566 111.704C2.43451 121.242 -0.38425 132.234 0.0433091 143.341C0.470868 154.447 4.12631 165.191 10.5648 174.264C17.0034 183.337 25.9473 190.347 36.3085 194.443C46.6696 198.539 58.0011 199.544 68.9241 197.334C79.8471 195.124 89.8907 189.796 97.8326 181.998L168.356 241.343C169.43 242.243 170.817 242.682 172.215 242.563C173.612 242.444 174.905 241.778 175.811 240.71C176.716 239.642 177.16 238.259 177.045 236.865C176.93 235.471 176.266 234.18 175.197 233.274L175.189 233.267L104.666 173.922C112.859 162.196 116.365 147.841 114.498 133.671C112.631 119.501 105.525 106.537 94.5729 97.32ZM90.0266 168.207C84.5325 174.701 77.231 179.424 69.0454 181.779C60.8598 184.134 52.1578 184.015 44.0397 181.438C35.9217 178.861 28.7523 173.941 23.438 167.3C18.1238 160.66 14.9035 152.597 14.1843 144.131C13.4651 135.665 15.2794 127.176 19.3977 119.739C23.5159 112.301 29.7532 106.249 37.3208 102.346C44.8884 98.4439 53.4464 96.8671 61.9126 97.8153C70.3788 98.7635 78.3729 102.194 84.8841 107.673C93.6153 115.02 99.0622 125.526 100.027 136.878C100.991 148.23 97.3939 159.5 90.0266 168.207Z" fill="#3F3D56"/>
<path opacity="0.3" d="M29.3275 173.336C21.064 166.381 15.7252 156.582 14.3711 145.884C13.017 135.186 15.7466 124.371 22.018 115.587C21.1944 116.414 20.3982 117.28 19.6294 118.186C15.9815 122.497 13.2208 127.483 11.505 132.859C9.78917 138.234 9.15182 143.894 9.62934 149.515C10.1069 155.136 11.6899 160.608 14.2881 165.619C16.8862 170.63 20.4486 175.082 24.7719 178.72C29.0951 182.358 34.0946 185.111 39.4848 186.822C44.8749 188.533 50.5503 189.169 56.1868 188.693C61.8233 188.217 67.3105 186.638 72.3352 184.047C77.3599 181.456 81.8236 177.903 85.4716 173.592C86.2386 172.685 86.961 171.757 87.6386 170.806C80.0111 178.449 69.7805 182.952 58.9781 183.421C48.1757 183.889 37.5916 180.289 29.3275 173.336Z" fill="black"/>
<path d="M236.748 243.562C237.299 242.891 237.696 242.108 237.911 241.268C238.125 240.428 238.153 239.551 237.991 238.699C237.829 237.847 237.481 237.041 236.973 236.338C236.465 235.634 235.808 235.051 235.05 234.628L222.195 182.156L212.817 185.141L226.698 237.255C226.07 238.573 225.949 240.076 226.357 241.477C226.766 242.879 227.675 244.083 228.914 244.86C230.153 245.638 231.635 245.935 233.079 245.696C234.523 245.456 235.828 244.697 236.748 243.562Z" fill="#FFB6B6"/>
<path d="M185.311 356.664L178.525 356.664L175.296 330.559L185.313 330.559L185.311 356.664Z" fill="#FFB6B6"/>
<path d="M187.042 363.225L165.159 363.224V362.948C165.159 360.695 166.057 358.535 167.654 356.942C169.251 355.349 171.418 354.454 173.676 354.454H173.677L187.042 354.455L187.042 363.225Z" fill="#2F2E41"/>
<path d="M256.166 357.216L249.38 357.216L246.151 331.11L256.168 331.111L256.166 357.216Z" fill="#FFB6B6"/>
<path d="M257.897 363.777L236.015 363.776V363.5C236.015 361.247 236.912 359.087 238.51 357.494C240.107 355.901 242.273 355.006 244.532 355.006H244.533L257.898 355.006L257.897 363.777Z" fill="#2F2E41"/>
<path d="M209.58 172.845C217.089 172.845 223.176 166.775 223.176 159.286C223.176 151.798 217.089 145.728 209.58 145.728C202.071 145.728 195.984 151.798 195.984 159.286C195.984 166.775 202.071 172.845 209.58 172.845Z" fill="#FFB6B6"/>
<path d="M223.86 216.185L196.965 219.693L197.467 223.525L224.363 220.017L223.86 216.185Z" fill="#3F3D56"/>
<path d="M160.889 220.848C161.146 221.014 161.389 221.2 161.617 221.404L188.219 214.641L190.034 208.241L200.077 209.71L197.969 221.352C197.798 222.292 197.327 223.152 196.625 223.803C195.922 224.453 195.028 224.859 194.075 224.959L163.014 228.221C162.507 229.284 161.689 230.168 160.666 230.755C159.644 231.343 158.466 231.606 157.29 231.51C156.114 231.414 154.995 230.963 154.083 230.218C153.17 229.472 152.506 228.467 152.18 227.336C151.854 226.205 151.881 225.002 152.258 223.886C152.634 222.771 153.342 221.796 154.287 221.092C155.233 220.388 156.371 219.987 157.55 219.944C158.729 219.9 159.894 220.216 160.889 220.848Z" fill="#FFB6B6"/>
<path d="M230.104 209.999L223.251 215.895L213.663 224.137L209.429 202.53L208.986 200.283L208.637 198.5L218.352 181.624L226.45 182.087L227.004 182.12L227.015 182.242L227.142 183.374L228.803 198.268L228.842 198.627L230.104 209.999Z" fill="#47C7A6"/>
<path d="M261.59 346.824L243.323 349.585L216.747 259.888L188.521 350.137L168.039 347.376L194.61 242.487V234.206L198.208 221.785L194.005 184.057C193.943 183.504 194.09 182.948 194.417 182.497C194.743 182.046 195.227 181.733 195.772 181.618L204.297 179.83H218.23L226.45 182.087L227.015 182.242L227.27 182.314L227.142 183.374L223.251 215.895L222.841 219.301C238.894 230.894 239.448 242.487 239.448 242.487L261.59 346.824Z" fill="#47C7A6"/>
<path d="M201.806 185.074L197.101 181.486C195.829 181.004 194.085 182.372 193.78 183.694L187.137 210.744L200.976 220.681L202.913 217.645L201.806 185.074Z" fill="#47C7A6"/>
<g opacity="0.2">
<path d="M228.803 198.268C227.628 198.733 226.431 199.138 225.216 199.482C224.828 199.598 224.43 199.709 224.037 199.814C221.446 200.531 218.784 200.96 216.099 201.094C214.943 201.143 213.785 201.112 212.633 201.001C211.397 200.878 210.176 200.637 208.986 200.283C208.947 200.272 208.902 200.261 208.864 200.25C206.389 199.549 204.119 198.263 202.249 196.501C201.831 196.096 201.44 195.662 201.081 195.204C200.047 193.942 199.289 192.478 198.854 190.907C198.419 189.336 198.318 187.691 198.556 186.079C198.603 185.787 198.666 185.497 198.745 185.212C198.953 184.435 199.229 183.678 199.569 182.949C199.719 182.606 199.885 182.27 200.062 181.938L206.317 179.83H218.23L226.45 182.087L227.004 182.121L227.015 182.242L227.269 182.314L227.142 183.374L228.803 198.268Z" fill="black"/>
</g>
<path d="M199.162 148.061C196.62 147.75 193.829 147.97 191.848 149.589C189.866 151.207 189.226 154.573 191.102 156.312C192.764 157.851 195.361 157.489 197.586 157.927C199.503 158.356 201.22 159.413 202.463 160.93C203.706 162.447 204.402 164.336 204.441 166.294C204.408 171.911 199.003 176.164 198.032 181.697C197.369 185.473 198.966 189.447 201.727 192.114C204.488 194.781 208.283 196.223 212.107 196.613C215.931 197.004 219.797 196.407 223.513 195.427C227.245 194.444 230.919 193.048 234.05 190.797C237.181 188.546 239.748 185.373 240.753 181.656C241.758 177.94 241.037 173.679 238.446 170.825C235.479 167.557 230.544 166.434 227.978 162.845C225.102 158.822 226.166 153.092 223.838 148.73C222.284 145.818 219.341 143.832 216.203 142.786C213.066 141.739 209.716 141.533 206.41 141.431C204.672 141.378 202.881 141.36 201.261 141.992C199.642 142.624 198.219 144.064 198.135 145.796C198.051 147.528 199.162 148.061 199.162 148.061Z" fill="#2F2E41"/>
<path d="M326.446 364H115.541C115.394 364 115.253 363.942 115.149 363.838C115.046 363.735 114.987 363.594 114.987 363.448C114.987 363.302 115.046 363.161 115.149 363.058C115.253 362.954 115.394 362.896 115.541 362.896H326.446C326.593 362.896 326.734 362.954 326.838 363.058C326.942 363.161 327 363.302 327 363.448C327 363.594 326.942 363.735 326.838 363.838C326.734 363.942 326.593 364 326.446 364Z" fill="#CACACA"/>
</g>
<defs>
<clipPath id="clip0_228_257">
<rect width="327" height="364" fill="white"/>
</clipPath>
</defs>
</svg>
