<svg width="434" height="319" viewBox="0 0 434 319" fill="none" xmlns="http://www.w3.org/2000/svg">
<g clip-path="url(#clip0_228_337)">
<path d="M423.185 139.027C423.306 137.172 418.958 136.266 419.156 134.643C419.353 133.025 423.738 133.362 428.374 130.44C429.21 129.913 434.478 126.593 433.964 124.102C432.991 119.381 412.101 121.791 410.068 114.922C409.621 113.415 410.036 111.3 408.805 106.562C408.316 104.678 407.909 103.699 407.08 103.391C405.902 102.953 404.9 104.245 402.009 106.155C397.674 109.019 396.882 108.123 393.771 110.646C391.461 112.52 390.685 113.997 389.679 113.699C388.257 113.278 388.892 110.047 387.263 109.259C385.601 108.454 382.702 110.736 380.925 112.714C377.592 116.426 377.246 120.147 376.138 123.549C374.934 127.245 372.266 132.294 365.648 137.493L305.229 181.512C317.948 172.699 353.516 149.024 367.374 140.665C371.374 138.252 375.575 135.902 380.162 136.983C384.578 138.023 388.819 142.117 395.939 144.832C396.77 145.15 399.096 146.003 400.143 145.008C401.009 144.185 400.212 142.849 401.009 142.068C402.077 141.022 404.379 142.578 408.15 143.11C410.809 143.486 412.848 143.162 414.601 142.884C415.129 142.8 423.024 141.496 423.185 139.027Z" fill="#F2F2F2"/>
<path d="M321.1 114.023C320.226 113.429 318.527 115.303 317.788 114.738C317.052 114.174 318.482 112.117 318.387 108.997C318.37 108.434 318.262 104.888 316.892 104.422C314.296 103.538 309.45 114.495 305.495 113.512C304.627 113.297 303.71 112.483 301.032 111.72C299.966 111.417 299.369 111.334 298.979 111.653C298.424 112.105 298.769 112.97 298.871 114.941C299.024 117.897 298.357 118.028 298.696 120.284C298.949 121.959 299.449 122.767 299.013 123.175C298.396 123.752 296.995 122.508 296.138 123.081C295.264 123.665 295.546 125.748 296.004 127.191C296.863 129.9 298.588 131.143 299.936 132.669C301.401 134.327 303.107 137.094 303.747 141.846L307.9 184.227C307.248 175.436 305.901 151.132 305.8 141.913C305.771 139.252 305.831 136.51 307.685 134.568C309.469 132.699 312.7 131.797 316.086 129.083C316.481 128.766 317.571 127.87 317.385 127.068C317.231 126.406 316.346 126.411 316.193 125.795C315.989 124.968 317.415 124.286 318.765 122.587C319.716 121.389 320.146 120.295 320.515 119.353C320.626 119.069 322.264 114.815 321.1 114.023Z" fill="#F2F2F2"/>
<path d="M335.828 129.863L338.516 124.807L339 124.616C341.237 123.731 342.904 122.512 343.955 120.99C344.122 120.749 344.277 120.498 344.434 120.243C345.059 119.233 345.836 117.976 347.442 116.992C348.339 116.444 350.592 115.297 351.938 116.553C352.304 116.887 352.483 117.283 352.566 117.66C352.637 117.629 352.709 117.598 352.787 117.565C353.744 117.171 354.324 117.119 354.882 117.069C355.311 117.03 355.754 116.991 356.577 116.742C356.938 116.633 357.235 116.524 357.486 116.432C358.245 116.157 359.195 115.858 360.082 116.483C361.007 117.184 360.966 118.318 360.94 119.07C360.893 120.41 360.7 121.267 360.573 121.836C360.526 122.044 360.473 122.278 360.472 122.36C360.47 123.025 363.264 124.317 364.313 124.81C366.675 125.909 368.718 126.86 368.558 128.716C368.445 130.044 367.177 131.034 364.685 131.733C363.908 131.951 363.189 132.027 362.578 132.055C362.775 132.483 362.865 132.994 362.657 133.558C362.164 134.892 360.406 135.362 357.43 134.962C356.69 134.864 355.696 134.729 354.537 134.197C353.991 133.947 353.538 133.666 353.154 133.419C352.997 133.631 352.785 133.832 352.486 133.984C351.609 134.432 350.567 134.218 349.404 133.301C348.111 132.311 347.182 131.298 346.362 130.405C345.645 129.627 345.025 128.959 344.423 128.603C343.297 127.958 341.89 128.249 340.166 128.696L335.828 129.863Z" fill="#F2F2F2"/>
<path d="M357.398 103.575L351.83 102.255L351.522 101.836C350.1 99.8935 348.499 98.5894 346.762 97.9577C346.486 97.8572 346.204 97.771 345.918 97.6829C344.783 97.3341 343.371 96.901 342.013 95.5962C341.256 94.8665 339.576 92.9764 340.448 91.3538C340.678 90.9152 341.015 90.6419 341.358 90.4657C341.31 90.4047 341.263 90.3423 341.211 90.2755C340.588 89.4492 340.39 88.9011 340.2 88.3731C340.054 87.9673 339.903 87.5484 339.454 86.8151C339.257 86.4934 339.076 86.233 338.924 86.0135C338.465 85.3483 337.936 84.5045 338.315 83.4872C338.757 82.4139 339.864 82.1657 340.597 82.0008C341.904 81.7062 342.782 81.675 343.364 81.6545C343.576 81.6475 343.816 81.6385 343.896 81.619C344.539 81.4526 345.079 78.419 345.289 77.2784C345.752 74.7135 346.153 72.494 347.987 72.1781C349.299 71.951 350.577 72.9275 351.886 75.1631C352.293 75.8593 352.549 76.5366 352.731 77.1214C353.095 76.8213 353.566 76.605 354.164 76.6631C355.578 76.8025 356.478 78.3852 356.846 81.3677C356.939 82.1091 357.061 83.1059 356.841 84.3628C356.737 84.9546 356.581 85.4649 356.44 85.899C356.685 85.9971 356.933 86.1517 357.155 86.4022C357.811 87.138 357.868 88.2007 357.276 89.5592C356.648 91.0621 355.904 92.2186 355.25 93.2394C354.68 94.1311 354.192 94.9004 354 95.5733C353.662 96.8271 354.301 98.1158 355.17 99.6713L357.398 103.575Z" fill="#F2F2F2"/>
<path d="M364.427 88.0697L367.115 83.0135L367.598 82.8222C369.836 81.9377 371.502 80.7183 372.553 79.197C372.721 78.9551 372.875 78.7047 373.033 78.4498C373.658 77.4392 374.435 76.1828 376.04 75.1982C376.937 74.6507 379.19 73.5035 380.537 74.7598C380.903 75.0937 381.081 75.4893 381.164 75.8662C381.236 75.8351 381.308 75.8047 381.386 75.7714C382.342 75.3778 382.922 75.3256 383.481 75.2754C383.91 75.2366 384.353 75.1972 385.176 74.9483C385.536 74.8392 385.834 74.7302 386.085 74.6388C386.844 74.3632 387.794 74.0648 388.681 74.6896C389.606 75.3903 389.565 76.5248 389.538 77.2761C389.492 78.6164 389.299 79.4739 389.171 80.0425C389.124 80.25 389.072 80.4842 389.071 80.5665C389.068 81.2312 391.863 82.524 392.912 83.0166C395.273 84.1157 397.317 85.0668 397.157 86.9225C397.044 88.2505 395.776 89.2401 393.283 89.9399C392.507 90.1573 391.788 90.2337 391.176 90.2611C391.374 90.6897 391.464 91.2008 391.256 91.7646C390.762 93.0986 389.004 93.569 386.029 93.1681C385.289 93.0704 384.294 92.9352 383.135 92.4038C382.59 92.1531 382.136 91.8722 381.753 91.6258C381.596 91.838 381.383 92.0389 381.085 92.1906C380.207 92.6385 379.166 92.4242 378.003 91.5071C376.71 90.5174 375.781 89.5041 374.96 88.6119C374.243 87.8337 373.624 87.1658 373.022 86.8099C371.896 86.1646 370.489 86.4557 368.765 86.9029L364.427 88.0697Z" fill="#F2F2F2"/>
<path d="M306.853 182.512L306.292 181.222L305.056 180.567C305.11 180.448 305.216 180.161 305.384 179.713C306.308 177.262 309.116 169.8 314.697 158.842C318.593 151.193 323.019 143.618 327.855 136.323C332.698 129.017 336.787 123.776 340.073 119.562C342.552 116.385 344.966 113.396 347.32 110.486C353.606 102.711 359.543 95.3647 364.969 86.4459C366.181 84.4555 368.703 80.3112 369.28 74.4579C369.615 71.063 369.249 67.5945 368.191 64.1509L370.881 63.3232C372.047 67.1272 372.449 70.9674 372.078 74.7369C371.438 81.2268 368.69 85.7425 367.37 87.9122C361.849 96.9884 355.854 104.404 349.506 112.255C347.162 115.155 344.757 118.13 342.289 121.295C339.033 125.469 334.98 130.665 330.2 137.877C325.421 145.084 321.049 152.567 317.201 160.119C311.691 170.939 308.925 178.29 308.017 180.705C307.531 181.994 307.429 182.264 306.853 182.512Z" fill="#F2F2F2"/>
<path d="M361.412 64.9235C361.317 64.8582 361.222 64.79 361.129 64.7164C359.227 63.2556 358.207 60.818 358.098 57.4716C358.049 55.8991 358.474 54.4355 359.324 51.5166C359.454 51.0662 360.14 48.7986 361.537 45.9887C362.449 44.1523 362.958 43.4719 363.714 43.0804C364.553 42.6434 365.478 42.5712 366.371 42.7066C366.493 42.4642 366.674 42.2515 366.93 42.084C367.988 41.3868 368.952 42.2343 369.479 42.6854C369.742 42.9189 370.068 43.2126 370.469 43.4578C371.099 43.8461 371.551 43.8891 372.233 43.9571C372.886 44.0217 373.698 44.102 374.696 44.5231C376.669 45.3459 377.78 46.8273 378.147 47.3152C380.083 49.8718 379.984 52.672 379.869 55.9141C379.844 56.5633 379.695 58.8857 378.793 61.592C378.142 63.5444 377.58 64.225 377.07 64.6684C376.026 65.5815 374.918 65.7544 372.247 65.9824C369.456 66.2241 368.056 66.3438 366.98 66.2624C364.478 66.0695 362.907 65.9484 361.412 64.9235Z" fill="#F2F2F2"/>
<path d="M350.327 0H192.704C186.922 0 182.22 4.706 182.22 10.4933V173.223C182.22 179.011 186.922 183.717 192.704 183.717H350.327C356.109 183.717 360.811 179.011 360.811 173.223V10.4933C360.811 4.706 356.109 0 350.327 0ZM359.709 173.223C359.709 178.409 355.509 182.613 350.327 182.613H192.704C187.522 182.613 183.322 178.409 183.322 173.223V10.4933C183.322 5.30742 187.522 1.1034 192.704 1.1034H276.196C322.319 1.1034 359.709 38.5266 359.709 84.6905V173.223Z" fill="#3F3D56"/>
<path d="M178.883 122.304C173.359 123.798 169.651 127.863 170.602 131.382C171.553 134.901 176.802 136.541 182.328 135.045C184.544 134.478 186.591 133.388 188.3 131.866L211.628 125.237L208.287 114.347L185.644 122.037C183.402 121.585 181.083 121.676 178.883 122.304Z" fill="#FFB6B6"/>
<path d="M276.642 89.6303C276.642 89.6303 283.228 99.3005 268.384 106.595C253.541 113.89 226.103 124.302 226.103 124.302L188.218 133.087L182.497 120.533L227.451 108.274L264.083 87.8125L276.642 89.6303Z" fill="#C8BDAF"/>
<path d="M272.235 63.891C272.066 68.4749 275.363 73.9163 278.849 74.028C283.043 74.1625 302.867 75.5756 303.504 73.9299C307.929 62.5036 287.09 38.8009 282.393 38.1171C279.869 37.7497 276.846 41.3772 275.684 44.3719C274.055 48.5685 276.459 50.5475 275.102 56.2012C274.068 60.5124 272.352 60.6865 272.235 63.891Z" fill="#2F2E41"/>
<path d="M237.727 244.591L223.813 247.783L237.794 289.304L247.223 287.142L237.727 244.591Z" fill="#FFB6B6"/>
<path d="M232.756 276.355L238.137 277.145L238.967 280.03C238.967 280.03 239.146 276.36 245.089 273.845L246.634 276.428C246.634 276.428 249.816 278.477 250.844 283.556L253.127 297.294L248.455 298.534L245.026 289.509C245.026 289.509 243.14 287.783 240.139 299.459C240.139 299.459 238.924 303.383 227.9 302.929C226.385 302.866 225.052 301.854 224.647 300.391C224.424 299.584 224.523 298.75 225.453 298.19C227.822 296.767 230.576 296.9 231.639 294.37C232.701 291.84 232.756 276.355 232.756 276.355Z" fill="#2F2E41"/>
<path d="M267.955 263.469L255.53 263.162L257.27 306.884L266.941 307.056L267.955 263.469Z" fill="#FFB6B6"/>
<path d="M255.492 293.102L260.525 295.165L260.637 298.165C260.637 298.165 261.693 294.646 268.067 293.637L268.945 296.515C268.945 296.515 271.541 299.271 271.318 304.448L270.231 318.332L265.397 318.411L264.24 308.825C264.24 308.825 262.824 306.695 257.104 317.305C257.104 317.305 254.981 320.821 244.39 317.725C242.934 317.299 241.884 315.996 241.843 314.479C241.82 313.642 242.117 312.855 243.154 312.537C245.796 311.725 248.437 312.518 250.077 310.318C251.716 308.118 255.492 293.102 255.492 293.102Z" fill="#2F2E41"/>
<path d="M293.594 215.713L227.883 210.624L246.375 134.748L290.618 128.368L293.594 215.713Z" fill="#C8BDAF"/>
<path d="M284.532 76.2412L298.377 68.8584L309.558 82.0714L287.091 154.145L245.993 135.931L277.208 82.5185L284.532 76.2412Z" fill="#FBAF5D"/>
<path d="M286.286 141.132C286.286 141.132 290.695 163.886 277.043 175.713L272.863 189.011L268.351 213.557L268.759 276.954L252.223 275.299L245.609 214.614L245.53 184.411L221.118 205.336L246.667 255.562L225.848 264.686L200.422 204.16C198.655 200.473 199.126 196.102 201.638 192.877L245.993 135.931L286.286 141.132Z" fill="#2F2E41"/>
<path d="M303.428 74.8276L276.282 100.176C269.857 152.355 273.364 200.269 291.849 241.749L337.466 220.587C299.851 209.169 303.54 146.47 310.839 79.2895L303.428 74.8276Z" fill="#C8BDAF"/>
<path d="M280.017 82.6019L284.193 76.1348L261.097 89.7258L242.833 140.384L276.524 98.302L280.017 82.6019Z" fill="#C8BDAF"/>
<path d="M337.792 177.888C339.384 183.39 343.511 187.028 347.009 186.013C350.507 184.999 352.052 179.717 350.458 174.213C349.852 172.006 348.727 169.976 347.176 168.293L340.137 145.067L329.317 148.605L337.405 171.127C336.993 173.379 337.126 175.698 337.792 177.888Z" fill="#FFB6B6"/>
<path d="M302.373 79.8306C302.373 79.8306 311.842 72.9633 319.554 87.6042C327.266 102.245 338.452 129.397 338.452 129.397L348.314 167.048L335.941 173.132L322.406 128.509L300.919 92.448L302.373 79.8306Z" fill="#C8BDAF"/>
<path d="M291.115 68.2641C299.607 68.2641 306.491 61.3737 306.491 52.874C306.491 44.3743 299.607 37.4839 291.115 37.4839C282.623 37.4839 275.738 44.3743 275.738 52.874C275.738 61.3737 282.623 68.2641 291.115 68.2641Z" fill="#FFB6B6"/>
<path d="M291.165 46.8699C290.3 46.7845 289.855 47.7005 286.549 48.9785C285.378 49.4313 284.779 49.6586 284.091 49.7029C282 49.8373 280.375 48.6815 279.289 47.909C277.524 46.6534 276.387 45.8445 276.164 44.5514C275.875 42.864 277.783 40.979 281.612 37.2779C283.487 35.4653 284.63 34.3705 286.465 33.0674C289.542 30.8818 291.081 29.7889 293.238 29.5745C296.095 29.2905 298.267 30.6551 301.401 32.6241C302.248 33.156 303.469 33.4118 304.763 33.5093C309 33.8284 312.632 36.6548 313.784 40.7478C313.872 41.0605 313.946 41.3436 314.001 41.5859C316.276 51.5242 315.641 61.8609 312.529 71.5689C312.445 71.8303 312.375 72.0736 312.321 72.2953C310.875 78.2075 291.013 80.5122 288.69 75.5141C287.227 72.3667 294.064 69.2176 295.085 59.8331C295.795 53.2999 293.324 47.083 291.165 46.8699Z" fill="#2F2E41"/>
<path d="M231.278 50.3442H64.6738V51.199H231.278V50.3442Z" fill="#E6E6E6"/>
<path d="M207.757 37.8471H88.1934C86.3098 37.8471 84.7773 36.3132 84.7773 34.4279C84.7773 32.5426 86.3098 31.0088 88.1934 31.0088H207.757C209.64 31.0088 211.173 32.5426 211.173 34.4279C211.173 36.3132 209.64 37.8471 207.757 37.8471Z" fill="#E6E6E6"/>
<path d="M65.0427 57.147C69.0002 57.147 72.2084 53.9359 72.2084 49.9749C72.2084 46.0138 69.0002 42.8027 65.0427 42.8027C61.0852 42.8027 57.877 46.0138 57.877 49.9749C57.877 53.9359 61.0852 57.147 65.0427 57.147Z" fill="#E6E6E6"/>
<path d="M87.0915 41.6992C91.049 41.6992 94.2572 38.4881 94.2572 34.5271C94.2572 30.566 91.049 27.355 87.0915 27.355C83.134 27.355 79.9258 30.566 79.9258 34.5271C79.9258 38.4881 83.134 41.6992 87.0915 41.6992Z" fill="#E6E6E6"/>
<path d="M175.054 130.341H8.4502V131.196H175.054V130.341Z" fill="#3F3D56"/>
<path d="M151.534 117.844H31.9708C30.0872 117.844 28.5547 116.31 28.5547 114.425C28.5547 112.539 30.0872 111.005 31.9708 111.005H151.534C153.418 111.005 154.95 112.539 154.95 114.425C154.95 116.31 153.418 117.844 151.534 117.844Z" fill="#FBAF5D"/>
<path d="M7.16571 137.144C11.1232 137.144 14.3314 133.932 14.3314 129.971C14.3314 126.01 11.1232 122.799 7.16571 122.799C3.2082 122.799 0 126.01 0 129.971C0 133.932 3.2082 137.144 7.16571 137.144Z" fill="#FBAF5D"/>
<path d="M29.2145 121.696C33.1721 121.696 36.3803 118.485 36.3803 114.524C36.3803 110.563 33.1721 107.352 29.2145 107.352C25.257 107.352 22.0488 110.563 22.0488 114.524C22.0488 118.485 25.257 121.696 29.2145 121.696Z" fill="#FBAF5D"/>
<path d="M194.898 218.613H28.2939V219.468H194.898V218.613Z" fill="#E6E6E6"/>
<path d="M171.378 206.116H51.8145C49.9309 206.116 48.3984 204.582 48.3984 202.697C48.3984 200.812 49.9309 199.278 51.8145 199.278H171.378C173.261 199.278 174.794 200.812 174.794 202.697C174.794 204.582 173.261 206.116 171.378 206.116Z" fill="#E6E6E6"/>
<path d="M48.5065 209.417C52.464 209.417 55.6722 206.205 55.6722 202.244C55.6722 198.283 52.464 195.072 48.5065 195.072C44.549 195.072 41.3408 198.283 41.3408 202.244C41.3408 206.205 44.549 209.417 48.5065 209.417Z" fill="#E6E6E6"/>
<path d="M27.0095 225.968C30.967 225.968 34.1752 222.757 34.1752 218.796C34.1752 214.835 30.967 211.624 27.0095 211.624C23.0519 211.624 19.8438 214.835 19.8438 218.796C19.8438 222.757 23.0519 225.968 27.0095 225.968Z" fill="#E6E6E6"/>
</g>
<defs>
<clipPath id="clip0_228_337">
<rect width="434" height="319" fill="white"/>
</clipPath>
</defs>
</svg>
