<svg width="214" height="157" viewBox="0 0 214 157" fill="none" xmlns="http://www.w3.org/2000/svg">
<g clip-path="url(#clip0_228_3009)">
<path d="M42.3993 127.058C42.2838 126.705 41.408 126.86 41.324 126.545C41.2402 126.23 42.0805 125.966 42.725 125.08C42.8412 124.92 43.5736 123.913 43.2927 123.489C42.7603 122.686 39.0557 124.686 38.1665 123.564C37.9714 123.318 37.8911 122.895 37.3097 122.108C37.0784 121.795 36.93 121.644 36.7527 121.648C36.5012 121.655 36.4112 121.969 36.0158 122.538C35.4229 123.391 35.2089 123.284 34.8183 123.983C34.5283 124.502 34.494 124.834 34.2849 124.853C33.989 124.881 33.8667 124.235 33.5051 124.21C33.1362 124.184 32.767 124.823 32.5839 125.321C32.2405 126.258 32.4532 126.973 32.5003 127.686C32.5516 128.461 32.4313 129.595 31.5876 131.051L23.6306 143.705C25.3395 141.125 30.1902 134.091 32.1446 131.511C32.7088 130.766 33.3151 130.018 34.2483 129.878C35.1467 129.742 36.2399 130.186 37.7657 130.16C37.9439 130.157 38.4398 130.142 38.5605 129.88C38.6602 129.663 38.4126 129.475 38.5026 129.271C38.6235 128.997 39.1671 129.115 39.9079 128.933C40.4303 128.805 40.7852 128.593 41.0904 128.411C41.1824 128.356 42.5531 127.528 42.3993 127.058Z" fill="#F2F2F2"/>
<path d="M21.5583 130.012C21.3515 129.967 21.1752 130.441 20.9957 130.391C20.8169 130.341 20.9297 129.853 20.6798 129.282C20.6347 129.179 20.3508 128.53 20.0614 128.545C19.5129 128.574 19.4275 130.966 18.619 131.078C18.4416 131.102 18.2105 131.02 17.6558 131.077C17.4351 131.1 17.318 131.129 17.269 131.217C17.1996 131.343 17.328 131.477 17.4937 131.835C17.7423 132.372 17.6278 132.446 17.8589 132.839C18.0305 133.131 18.1837 133.243 18.1329 133.351C18.0612 133.504 17.7081 133.378 17.5915 133.547C17.4724 133.721 17.6799 134.086 17.8724 134.319C18.2336 134.758 18.6468 134.86 19.0111 135.043C19.407 135.241 19.9301 135.627 20.4026 136.461L24.329 144.01C23.5536 142.428 21.4943 138.022 20.7894 136.321C20.5859 135.829 20.3931 135.317 20.5932 134.819C20.7858 134.34 21.3193 133.932 21.7469 133.177C21.7968 133.089 21.9327 132.842 21.8385 132.707C21.7606 132.596 21.5964 132.663 21.5222 132.56C21.4225 132.421 21.6371 132.189 21.7615 131.774C21.8493 131.481 21.8476 131.246 21.8462 131.044C21.8458 130.983 21.8337 130.072 21.5583 130.012Z" fill="#F2F2F2"/>
<path d="M25.4756 131.854L25.599 130.717L25.6747 130.645C26.0249 130.315 26.244 129.965 26.3262 129.605C26.3392 129.548 26.3494 129.49 26.3597 129.431C26.4007 129.197 26.4516 128.906 26.6768 128.604C26.8029 128.436 27.1364 128.056 27.4803 128.189C27.5731 128.223 27.6357 128.283 27.6793 128.347C27.6902 128.336 27.7014 128.325 27.7134 128.313C27.8619 128.169 27.9658 128.116 28.0659 128.065C28.1429 128.026 28.2223 127.986 28.3567 127.879C28.4157 127.832 28.4629 127.789 28.5027 127.754C28.6234 127.646 28.7777 127.52 28.9892 127.57C29.2133 127.631 29.2901 127.845 29.3411 127.986C29.4322 128.238 29.4602 128.411 29.4787 128.526C29.4854 128.568 29.4932 128.615 29.499 128.631C29.5481 128.754 30.1639 128.786 30.3956 128.799C30.9164 128.828 31.3671 128.852 31.4755 129.208C31.5533 129.463 31.3912 129.74 30.9799 130.055C30.8518 130.153 30.7237 130.221 30.6121 130.272C30.6807 130.336 30.7354 130.424 30.7387 130.544C30.7463 130.828 30.4544 131.046 29.8714 131.193C29.7265 131.23 29.5316 131.279 29.2765 131.267C29.1564 131.261 29.0512 131.242 28.9615 131.225C28.9481 131.276 28.9236 131.329 28.8794 131.38C28.7496 131.528 28.54 131.566 28.2556 131.482C27.9415 131.395 27.6934 131.276 27.4744 131.171C27.2831 131.081 27.1182 131.003 26.9798 130.981C26.7225 130.946 26.4825 131.104 26.1953 131.315L25.4756 131.854Z" fill="#F2F2F2"/>
<path d="M27.5293 125.376L26.3959 125.546L26.3074 125.491C25.8984 125.236 25.5037 125.114 25.1338 125.126C25.0749 125.128 25.0162 125.132 24.9564 125.137C24.7194 125.157 24.4248 125.182 24.0751 125.041C23.88 124.962 23.427 124.736 23.4685 124.371C23.4786 124.272 23.5209 124.196 23.5716 124.138C23.5581 124.131 23.5446 124.123 23.53 124.114C23.3526 124.007 23.2751 123.92 23.2005 123.836C23.143 123.772 23.0839 123.706 22.9458 123.603C22.8852 123.558 22.8322 123.523 22.7876 123.494C22.6528 123.405 22.4916 123.288 22.4863 123.071C22.4887 122.839 22.676 122.711 22.8 122.625C23.0211 122.474 23.1819 122.403 23.2886 122.356C23.3276 122.338 23.3715 122.319 23.3849 122.309C23.492 122.231 23.3668 121.628 23.3209 121.401C23.2161 120.891 23.1255 120.45 23.443 120.255C23.67 120.115 23.9803 120.201 24.39 120.518C24.5175 120.617 24.6155 120.724 24.6928 120.819C24.7382 120.736 24.8097 120.661 24.9251 120.627C25.1984 120.548 25.4837 120.774 25.7739 121.3C25.8465 121.431 25.9432 121.606 25.996 121.856C26.0207 121.973 26.0296 122.079 26.0357 122.17C26.0885 122.17 26.1461 122.181 26.2061 122.21C26.3828 122.298 26.4725 122.491 26.4636 122.787C26.4586 123.112 26.4064 123.382 26.3608 123.62C26.3212 123.827 26.2876 124.006 26.3021 124.145C26.3326 124.403 26.5472 124.594 26.8246 124.818L27.5293 125.376Z" fill="#F2F2F2"/>
<path d="M27.6821 121.979L27.8055 120.842L27.8812 120.77C28.2314 120.44 28.4505 120.09 28.5327 119.73C28.5458 119.673 28.5559 119.615 28.5663 119.556C28.6073 119.322 28.6581 119.031 28.8834 118.729C29.0094 118.561 29.3429 118.181 29.6868 118.314C29.7796 118.348 29.8423 118.408 29.8858 118.472C29.8967 118.461 29.9079 118.45 29.9199 118.438C30.0685 118.294 30.1724 118.241 30.2725 118.19C30.3494 118.151 30.4288 118.111 30.5633 118.004C30.6222 117.957 30.6695 117.914 30.7092 117.879C30.8299 117.771 30.9843 117.645 31.1957 117.695C31.4198 117.756 31.4967 117.97 31.5477 118.111C31.6387 118.363 31.6667 118.536 31.6853 118.651C31.692 118.693 31.6997 118.74 31.7056 118.756C31.7546 118.879 32.3704 118.911 32.6021 118.924C33.123 118.953 33.5737 118.977 33.6821 119.333C33.7598 119.588 33.5977 119.865 33.1864 120.18C33.0583 120.278 32.9302 120.346 32.8186 120.397C32.8873 120.461 32.9419 120.549 32.9453 120.669C32.9528 120.953 32.661 121.171 32.0779 121.318C31.933 121.355 31.7381 121.404 31.4831 121.392C31.363 121.386 31.2578 121.367 31.1681 121.35C31.1547 121.401 31.1302 121.454 31.086 121.505C30.9562 121.653 30.7466 121.691 30.4621 121.607C30.148 121.52 29.8999 121.401 29.6809 121.296C29.4897 121.206 29.3248 121.128 29.1864 121.106C28.929 121.071 28.689 121.229 28.4018 121.44L27.6821 121.979Z" fill="#F2F2F2"/>
<path d="M24.0068 143.77L23.8064 143.572L23.5279 143.543C23.5292 143.517 23.5274 143.456 23.5253 143.36C23.5146 142.837 23.4813 141.245 23.7035 138.798C23.8586 137.09 24.1178 135.357 24.4739 133.645C24.8306 131.93 25.2008 130.654 25.4981 129.629C25.7225 128.855 25.949 128.122 26.1701 127.407C26.7601 125.498 27.3172 123.695 27.6622 121.638C27.7394 121.179 27.8998 120.223 27.5715 119.095C27.381 118.44 27.0549 117.824 26.6019 117.265L27.0404 116.911C27.5403 117.53 27.9009 118.212 28.1124 118.938C28.4764 120.189 28.3017 121.231 28.2178 121.731C27.8666 123.824 27.304 125.645 26.7081 127.572C26.4882 128.284 26.2624 129.015 26.039 129.785C25.7444 130.801 25.3775 132.066 25.0255 133.758C24.6734 135.45 24.4175 137.162 24.2641 138.849C24.0449 141.264 24.0779 142.833 24.0886 143.348C24.0942 143.623 24.0954 143.681 24.0068 143.77Z" fill="#F2F2F2"/>
<path d="M25.399 117.912C25.3764 117.907 25.3537 117.901 25.331 117.894C24.8686 117.765 24.4976 117.389 24.2282 116.777C24.102 116.489 24.0723 116.186 24.0129 115.581C24.0036 115.488 23.9624 115.017 24.013 114.392C24.0459 113.984 24.0899 113.82 24.2012 113.691C24.3249 113.547 24.4914 113.465 24.6674 113.424C24.6722 113.37 24.6899 113.317 24.7251 113.267C24.8698 113.059 25.1122 113.144 25.2437 113.189C25.31 113.213 25.3925 113.243 25.4854 113.259C25.6313 113.284 25.7185 113.258 25.8504 113.22C25.9766 113.183 26.1336 113.138 26.3505 113.142C26.7786 113.148 27.0954 113.34 27.1999 113.403C27.7502 113.733 27.9402 114.259 28.1601 114.869C28.2038 114.991 28.3488 115.433 28.3826 116.002C28.4069 116.412 28.3531 116.58 28.2913 116.7C28.1651 116.947 27.9719 117.062 27.4924 117.302C26.9914 117.555 26.74 117.681 26.5339 117.746C26.0544 117.896 25.7532 117.991 25.399 117.912Z" fill="#F2F2F2"/>
<path d="M89.023 83.3558C90.5185 82.0949 90.1214 79.1714 88.1362 76.8259C87.2672 75.7992 86.2379 75.0536 85.2297 74.6453L84.071 73.3106L69.1083 54.5984C69.1083 54.5984 60.8222 35.9836 58.3761 33.9725C55.9301 31.9615 53.0523 33.0085 53.0523 33.0085L50.8069 35.7813L64.7991 61.772L79.1192 76.156L81.0523 78.1677C81.2872 79.2279 81.8518 80.3654 82.7209 81.392C84.7061 83.7375 87.5276 84.6167 89.023 83.3558Z" fill="#FFB6B6"/>
<path d="M60.7788 37.4336L64.5285 42.9223L69.9115 50.8741L60.2392 54.2137L51.6992 39.5878L60.7788 37.4336Z" fill="#E6E6E6"/>
<path d="M214 143.264H0V143.915H214V143.264Z" fill="#3F3D56"/>
<path d="M151.5 98H134.439V92.2174C134.439 82.9157 142.005 75.3638 151.325 75.3638H151.5V98Z" fill="#282927"/>
<path d="M138.241 94.9719L141.069 85.7339L148.324 85.3713L151.501 98L138.241 94.9719Z" fill="#A0616A"/>
<path opacity="0.1" d="M138.241 94.9719L141.069 85.7339L148.324 85.3713L151.501 98L138.241 94.9719Z" fill="black"/>
<path d="M144.842 91.147C149.554 91.147 153.373 87.3349 153.373 82.6325C153.373 77.93 149.554 74.1179 144.842 74.1179C140.131 74.1179 136.312 77.93 136.312 82.6325C136.312 87.3349 140.131 91.147 144.842 91.147Z" fill="#A0616A"/>
<path d="M126.761 130.224L124.503 132.478C124.503 132.478 112.438 124.401 107.811 127.413C103.184 130.425 102.982 136.258 108.423 139.476C113.864 142.694 127.769 150.539 127.769 150.539C127.769 150.539 146.308 153.757 158.802 143.901C171.296 134.046 173.614 134.549 171.397 129.319C169.181 124.09 164.344 125.296 164.344 125.296L155.074 130.727L151.246 129.922L126.761 130.224Z" fill="#282927"/>
<path d="M127.265 132.738L136.938 136.962L133.311 145.611L119.003 142.192" fill="#282927"/>
<path d="M151.989 132.738L138.953 138.772L143.991 149.231L158.5 142.996" fill="#282927"/>
<path d="M138.953 93.2996L126.358 98.8474L130.389 120.972L126.761 130.224L146.107 133.241L156.027 130.169L155.175 125.799L156.027 109.492L159.407 99.853L150.339 93.6179L138.953 93.2996Z" fill="#E6E6E6"/>
<path d="M135.729 137.767L141.976 139.577L138.953 146.969L130.691 143.801L135.729 137.767Z" fill="#A0616A"/>
<path d="M144.411 137.767L136.737 141.588V147.425L145.402 146.415L144.411 137.767Z" fill="#A0616A"/>
<path d="M133.311 148.829C133.311 148.829 146.611 157.679 151.649 154.059C156.687 150.438 159.508 145.812 158.5 145.209C157.493 144.605 154.47 143.6 154.47 143.6L137.543 147.019L133.311 148.829Z" fill="#282927"/>
<path d="M116.383 142.192C116.383 142.192 109.532 152.651 115.98 154.26C122.429 155.869 138.679 149.231 138.679 149.231L137.542 140.583L134.52 143.6L116.383 142.192Z" fill="#282927"/>
<path d="M159.085 69.7977C157.2 68.0586 156.571 65.6782 157.68 64.4811C158.789 63.2839 161.216 63.7235 163.102 65.4634C163.864 66.1482 164.452 67.0053 164.814 67.963L172.708 75.4322L169.117 79.0546L161.717 71.3067C160.731 71.0207 159.829 70.5032 159.085 69.7977Z" fill="#A0616A"/>
<path d="M156.938 92.9584L171.221 86.0013L163.833 73.3183L166.146 68.6282C166.146 68.6282 184.127 78.6324 182.337 85.912C180.548 93.1916 162.713 106.565 157.017 104.427C155.288 103.778 154.286 102.62 153.729 101.321C152.37 98.1501 153.833 94.471 156.938 92.9584Z" fill="#E6E6E6"/>
<path d="M128.51 89.5207C128.944 88.2038 129.801 87.0509 130.184 85.7184C130.693 83.9493 131.776 87.8741 131.882 86.0365C132.083 82.5438 137.424 73.5592 140.473 71.8334C143.522 70.1076 145.273 70.628 148.38 72.2488C148.38 72.2488 149.887 72.3445 151.765 73.2695C153.642 74.1945 155.332 75.676 156.062 77.6344C156.64 79.1866 156.576 80.8913 156.77 82.5363C157.308 87.119 159.882 91.4775 159.33 96.0586C159.158 97.4879 158.613 98.9659 157.442 99.8066C156.271 100.647 154.38 100.556 153.609 99.339C153.346 98.9237 153.235 98.4311 153.01 97.9944C152.784 97.5576 152.377 97.1505 151.885 97.1641C151.145 97.1845 150.769 98.175 151.061 98.8536C151.352 99.5322 152.038 99.9419 152.681 100.306C151.149 100.994 149.248 100.78 147.908 99.7683C146.567 98.7565 145.844 96.9889 146.09 95.33C146.438 92.9921 149.85 93.476 150.252 91.1469C150.545 89.4514 151.572 86.6144 151.292 84.9167C151.013 83.2191 149.668 85.2746 151.084 84.2937C149.526 85.0434 146.194 79.915 144.563 79.3405C142.932 78.7661 141.549 77.5223 140.807 75.9628C139.077 78.4658 137.555 77.7861 136.936 80.7633C136.316 83.7406 137.345 92.9242 139.896 94.5864C138.875 95.2817 137.605 93.8563 137.126 94.9935C136.855 95.6377 136.679 96.3426 136.229 96.8776C135.368 97.8995 133.78 97.9617 132.514 97.532C130.944 96.9993 129.602 95.8291 128.861 94.3481C128.121 92.867 127.992 91.0929 128.51 89.5207Z" fill="#282927"/>
<path d="M106.689 87.5251C106.228 85.0048 104.551 83.1992 102.944 83.4924C101.337 83.7855 100.409 86.066 100.87 88.5872C101.041 89.5969 101.451 90.5511 102.067 91.37L104.155 102.024L109.144 100.939L106.555 90.5513C106.841 89.5677 106.887 88.53 106.689 87.5251Z" fill="#A0616A"/>
<path d="M127.431 98.1265L113.893 106.435L107.123 93.4122L101.916 92.8481C101.916 92.8481 100.744 113.362 107.86 115.755C114.977 118.147 135.847 110.284 137.091 104.338C137.468 102.533 137.025 101.068 136.225 99.9035C134.271 97.059 130.375 96.3201 127.431 98.1265Z" fill="#E6E6E6"/>
<path d="M201.294 113.638L152.798 128.937V69.9994L201.294 54.7007V113.638Z" fill="white"/>
<path d="M152.472 129.382V69.761L201.62 54.2563V113.877L152.472 129.382ZM153.124 70.2379V128.493L200.968 113.4V55.1451L153.124 70.2379Z" fill="#3F3D56"/>
<path d="M82.5334 126.713L121.426 138.982V91.7154L82.5334 79.4463V126.713Z" fill="white"/>
<path d="M121.752 139.426L121.328 139.292L82.2073 126.951V79.0017L82.6319 79.1359L121.752 91.4769V139.426ZM82.8597 126.474L121.1 138.537V91.9538L82.8597 79.8907V126.474Z" fill="#3F3D56"/>
<path d="M164.585 73.6418C164.031 76.5254 165.042 79.6607 167.177 81.6802C169.313 83.6996 172.504 84.5385 175.359 83.8309C178.069 83.1591 180.604 80.2985 179.458 77.7567C178.64 75.9446 176.146 75.259 174.357 76.1304C172.567 77.0018 171.572 79.0964 171.675 81.0812C171.779 83.0659 172.837 84.9109 174.249 86.3125C177.931 89.9683 183.829 90.9163 187.074 94.9633C189.908 98.4975 189.821 104.044 186.877 107.488C183.934 110.932 178.459 111.891 174.516 109.653C172.891 108.731 171.493 107.252 171.089 105.43C170.686 103.608 171.499 101.472 173.207 100.713C176.428 99.2819 179.671 103.125 183.196 103.182C185.215 103.214 187.176 101.82 187.805 99.9052C188.435 97.9903 187.683 95.7078 186.037 94.5396" fill="#00BFA6"/>
<path d="M96.3362 114.88C96.9595 116.706 95.6676 118.933 93.7702 119.303C91.8729 119.673 89.8363 118.094 89.7255 116.168C89.6146 114.242 91.4567 112.441 93.384 112.591C96.4892 112.834 98.3228 117.076 101.431 116.878C103.558 116.742 104.901 114.571 105.686 112.593C106.59 110.317 107.251 107.944 107.655 105.528C107.991 103.513 108.146 101.426 107.66 99.4415C107.175 97.4568 105.972 95.5723 104.148 94.6451C101.378 93.2366 97.5852 94.6106 96.2623 97.4189C94.9393 100.227 96.2137 103.938 98.9299 105.448C102.327 107.337 107.005 105.977 110.091 108.337C112.564 110.23 112.989 113.719 113.215 116.821C113.359 118.8 113.501 120.809 113.096 122.751C112.69 124.693 111.656 126.594 109.942 127.597C108.643 128.358 106.91 128.508 105.66 127.671C104.411 126.833 103.942 124.894 104.913 123.746C105.709 122.807 107.157 122.657 108.321 123.06C109.485 123.464 110.433 124.309 111.346 125.135" fill="#00BFA6"/>
<path d="M64.5857 18.7535L61.87 29.0875L51.5164 27.0546C51.5164 27.0546 55.5899 19.6006 54.5715 16.2124L64.5857 18.7535Z" fill="#FFB6B6"/>
<path d="M53.6563 153.27L59.8912 153.269L62.8571 129.266L53.655 129.267L53.6563 153.27Z" fill="#FFB6B6"/>
<path d="M75.0178 153.129C75.2119 153.455 75.3143 154.508 75.3143 154.888C75.3143 156.054 74.3669 157 73.1982 157H53.8894C53.0922 157 52.4458 156.355 52.4458 155.559V154.757C52.4458 154.757 51.4906 152.345 53.4572 149.373C53.4572 149.373 55.9013 151.7 59.5535 148.055L60.6305 146.108L68.4266 151.798L72.7478 152.329C73.6932 152.445 74.5315 152.311 75.0178 153.129Z" fill="#282927"/>
<path d="M70.9683 83.8035L62.3769 142.156H51.5978L53.0311 108.847L53.7854 91.3329L51.5978 82.9962C51.5978 82.9962 50.6003 81.1432 49.76 78.8969C48.8129 76.362 48.0648 73.3231 49.1754 71.882C49.584 71.3508 50.6464 70.9576 52.0902 70.6648C52.9724 70.4849 53.9992 70.3448 55.1077 70.236C61.4821 69.6065 70.5492 69.9997 70.5492 69.9997L70.7797 77.5918L70.9076 81.8313L70.9683 83.8035Z" fill="#282927"/>
<path d="M42.6731 150.416L48.8418 151.321L55.2743 128.003L46.17 126.668L42.6731 150.416Z" fill="#FFB6B6"/>
<path d="M63.8281 153.378C63.9726 153.729 63.9205 154.786 63.8651 155.161C63.6951 156.315 62.62 157.114 61.4637 156.944L42.3603 154.141C41.5715 154.025 41.026 153.293 41.142 152.505L41.2589 151.712C41.2589 151.712 40.6654 149.187 43.0442 146.532C43.0442 146.532 45.1232 149.189 49.2678 146.113L50.6171 144.343L57.5009 151.105L61.6988 152.257C62.6172 152.51 63.4661 152.499 63.8281 153.378Z" fill="#282927"/>
<path d="M71.1035 74.072L69.9252 84.201L63.4988 105.546L52.9199 140.686L42.2566 139.122L51.8268 89.1575L50.8792 80.5899C50.8792 80.5899 50.5706 79.7382 50.2168 78.4915C49.5147 76.0249 48.634 72.0081 49.6029 69.9591C49.7337 69.6806 49.8979 69.4389 50.1011 69.2432C50.4822 68.8744 51.2567 68.6504 52.2944 68.5316C56.6317 68.0423 65.564 69.4417 69.5387 70.1286L71.1035 74.072Z" fill="#282927"/>
<path d="M62.8884 26.0382L74.5999 40.7768L72.4976 56.1431L70.6961 71.7788L49.4795 68.56C49.4795 68.56 54.0623 57.5484 54.5715 57.0402C55.0807 56.5319 56.3597 57.7872 55.4656 56.1431C54.5715 54.499 53.5531 54.499 54.4018 53.652C55.2504 52.8049 47.7822 41.7933 47.7822 35.864C47.7822 29.9346 51.3466 25.1912 51.3466 25.1912L62.8884 26.0382Z" fill="#E6E6E6"/>
<path d="M60.1561 20.705C64.5133 20.705 68.0455 17.1795 68.0455 12.8305C68.0455 8.48157 64.5133 4.95605 60.1561 4.95605C55.7988 4.95605 52.2666 8.48157 52.2666 12.8305C52.2666 17.1795 55.7988 20.705 60.1561 20.705Z" fill="#FFB6B6"/>
<path d="M59.7874 27.8863C59.7874 27.8863 60.968 18.5629 61.1769 15.8515C61.3859 13.1402 65.2204 8.90706 65.2204 8.90706L67.9369 11.097C67.9369 11.097 70.2355 11.097 68.6682 7.75996C67.101 4.42295 64.1756 3.90154 64.1756 3.90154C64.1756 3.90154 63.8622 -0.478295 58.4292 0.0431166C52.9962 0.564525 50.5932 4.94436 50.5932 4.94436C50.5932 4.94436 50.2797 -0.582572 46.8319 3.48441C43.384 7.5514 41.3989 9.2199 45.0557 10.5756C48.7125 11.9312 51.429 10.8884 51.429 10.8884C51.429 10.8884 47.8767 11.6184 48.5036 14.1211C49.1304 16.6239 40.2496 27.9906 44.3243 29.242C48.3991 30.4934 57.4889 33.5175 58.5337 31.5362C59.5785 29.5548 59.7874 27.8863 59.7874 27.8863Z" fill="#282927"/>
<path d="M92.3095 84.1366C93.8154 82.8882 93.4429 79.9615 91.4775 77.5995C90.6171 76.5656 89.5941 75.8114 88.5894 75.3947L87.442 74.0504L72.6369 55.2136C72.6369 55.2136 64.5074 36.5301 62.0783 34.4987C59.6493 32.4673 56.7627 33.4902 56.7627 33.4902L54.4941 36.2441L68.2676 62.3509L82.4664 76.8542L84.3826 78.882C84.6086 79.9442 85.1636 81.0863 86.024 82.1202C87.9894 84.4822 90.8035 85.385 92.3095 84.1366Z" fill="#FFB6B6"/>
<path d="M53.6345 32.0422C53.6345 32.0422 57.2589 50.8145 61.3831 53.5819L69.6015 47.1857C69.6015 47.1857 70.3207 47.1548 68.9822 45.6457C67.6436 44.1366 67.9863 40.896 67.9863 40.896C67.9863 40.896 68.5886 41.6738 67.278 40.594C65.9675 39.5143 67.1875 32.0885 67.1875 32.0885L53.6345 32.0422Z" fill="#E6E6E6"/>
</g>
<defs>
<clipPath id="clip0_228_3009">
<rect width="214" height="157" fill="white"/>
</clipPath>
</defs>
</svg>
